<svg width="468" height="468" viewBox="0 0 468 468" fill="none" xmlns="http://www.w3.org/2000/svg">
<circle cx="233.87" cy="233.87" r="233.87" fill="#EEEEEE"/>
<circle cx="233.565" cy="233.565" r="220.565" fill="#398AB9"/>
<path d="M416.258 342.188H59.2578V342.382H416.258V342.188Z" fill="#EBEBEB"/>
<path d="M380.486 354.619H356.839V354.813H380.486V354.619Z" fill="#EBEBEB"/>
<path d="M295.749 356.721H289.545V356.915H295.749V356.721Z" fill="#EBEBEB"/>
<path d="M356.125 347.449H342.423V347.643H356.125V347.449Z" fill="#EBEBEB"/>
<path d="M127.552 348.747H96.7145V348.941H127.552V348.747Z" fill="#EBEBEB"/>
<path d="M138.433 348.747H133.914V348.941H138.433V348.747Z" fill="#EBEBEB"/>
<path d="M220.015 352.007H153.127V352.201H220.015V352.007Z" fill="#EBEBEB"/>
<path d="M125.695 342.195H76.3938C81.7274 336.879 94.3152 337.242 94.3152 337.242C94.3152 337.242 85.583 327.098 88.8031 320.585C92.0232 314.071 100.67 328.311 100.67 328.311C100.67 328.311 89.8027 307.11 93.8368 301.771C97.8709 296.432 108.717 325.035 108.717 325.035C108.717 325.035 102.098 294.817 106.089 293.975C110.08 293.133 114.193 322.632 114.193 322.632C114.193 322.632 112.765 295.652 116.099 296.424C119.434 297.197 117.806 332.383 117.806 332.383C117.806 332.383 121.162 314.419 122.597 320.152C124.032 325.885 121.169 338.162 121.169 338.162C122.256 338.085 123.329 338.46 124.17 339.209C125.011 339.958 125.556 341.026 125.695 342.195Z" fill="#E0E0E0"/>
<path d="M122.747 336.323C122.49 332.46 114.179 201.63 115.128 152.97L111.63 152.715C111.63 152.715 107.282 299.669 110.916 335.828L122.747 336.323Z" fill="#E0E0E0"/>
<path d="M114.2 169.211L123.196 161.292L124.096 156.378L129.508 147.454L130.665 146.998L125.331 157.089L125.124 160.473L133.221 158.866L136.612 152.097L140.197 149.053L140.725 150.058L137.676 153.001L135.184 160.241L124.089 163.254L112.508 178.436L114.2 169.211Z" fill="#E0E0E0"/>
<path d="M112.429 161.856L111.994 165.171L102.262 155.088L96.2643 153.805L91.6376 150.352L91.9589 150.019L96.35 153.048L101.219 153.303L96.607 147.091L92.066 143.514L92.373 143.305L96.9283 146.496L104.425 154.709L103.683 147.199L101.948 144.008L101.776 143.127L103.968 146.604L109.666 144.572L110.137 144.959L104.297 147.207L105.346 155.49L112.429 161.856Z" fill="#E0E0E0"/>
<path d="M144.824 148.914C145.045 147.57 143.074 146.596 140.954 146.45C139.384 146.337 137.827 146.078 136.298 145.677C136.498 145.19 136.356 144.611 136.641 143.776C137.262 141.953 136.934 140.686 135.063 139.141C133.193 137.595 131.322 137.866 127.209 138.368C123.097 138.87 123.696 136.884 120.012 134.976C116.328 133.068 103.497 133.863 101.141 135.64C99.7131 136.707 94.1796 136.081 92.6374 138.731C91.0952 141.381 81.9988 140.678 83.2055 142.95C84.4121 145.221 85.8473 145.322 85.6116 149.131C85.376 152.94 88.5533 151.665 91.7378 153.094C94.9222 154.524 94.4938 151.843 96.5787 151.673C98.6636 151.503 98.0924 151.271 100.234 150.197C102.376 149.123 102.069 150.475 105.468 152.322C107.339 153.341 108.038 152.105 108.617 150.776C108.959 151.634 108.574 152.886 109.274 154.338C109.831 155.505 112.08 155.76 114.222 155.543C116.571 160.365 117.577 156.316 120.519 156.687C123.625 157.05 128.295 154.369 130.515 154.114C132.736 153.859 132.85 153.233 135.113 155.126C137.377 157.019 147.108 153.318 148.03 151.41C148.951 149.501 144.609 150.266 144.824 148.914Z" fill="#E0E0E0"/>
<path d="M186.285 343.717C186.064 340.433 178.988 228.518 179.774 186.874L176.775 186.657C176.775 186.657 173.055 312.341 176.168 343.254L186.285 343.717Z" fill="#E0E0E0"/>
<path d="M178.974 200.796L186.671 194.02L187.442 189.817L192.069 182.191L193.061 181.797L188.499 190.42L188.32 193.325L195.246 191.942L198.145 186.155L201.208 183.551L201.665 184.409L199.059 186.928L196.924 193.116L187.428 195.705L177.531 208.677L178.974 200.796Z" fill="#E0E0E0"/>
<path d="M177.46 194.499L177.089 197.335L168.764 188.712L163.637 187.615L159.682 184.664L159.953 184.378L163.709 186.966L167.878 187.183L163.93 181.875L160.046 178.815L160.31 178.637L164.209 181.365L170.62 188.388L169.985 181.967L168.5 179.24L168.35 178.483L170.22 181.457L175.097 179.719L175.504 180.051L170.506 181.975L171.406 189.06L177.46 194.499Z" fill="#E0E0E0"/>
<path d="M205.171 183.435C205.357 182.284 203.671 181.465 201.858 181.326C200.516 181.229 199.185 181.001 197.881 180.646C198.045 180.237 197.924 179.742 198.174 179.024C198.702 177.478 198.416 176.42 196.824 175.06C195.232 173.7 193.618 173.971 190.127 174.411C186.635 174.852 187.128 173.144 183.972 171.514C180.816 169.884 169.849 170.563 167.829 172.086C166.615 172.997 161.874 172.464 160.56 174.697C159.246 176.93 151.464 176.358 152.492 178.297C153.52 180.237 154.748 180.329 154.548 183.575C154.348 186.82 157.069 185.738 159.789 186.959C162.509 188.179 162.152 185.892 163.93 185.746C165.708 185.599 165.223 185.406 167.058 184.486C168.893 183.567 168.628 184.718 171.534 186.302C173.134 187.175 173.726 186.124 174.226 185.012C174.519 185.746 174.19 186.82 174.783 188.063C175.261 189.052 177.189 189.277 179.024 189.091C181.031 193.217 181.88 189.779 184.408 190.072C187.064 190.381 191.055 188.11 192.926 187.87C194.796 187.631 194.918 187.098 196.853 188.736C198.788 190.374 207.12 187.19 207.905 185.552C208.691 183.914 204.985 184.587 205.171 183.435Z" fill="#E0E0E0"/>
<path d="M161.267 289.788C160.603 284.696 148.101 180.175 145.266 115.321H140.583C140.583 115.321 143.217 246.35 151.071 294.107L161.267 289.788Z" fill="#E6E6E6"/>
<path d="M146.773 341.677C146.773 341.677 171.163 292.361 186.65 284.735C188.842 283.661 193.732 286.659 196.646 284.735C199.559 282.811 205.963 269.638 210.868 269.908C215.774 270.178 238.379 230.952 247.04 228.148L253.601 227.375C253.601 227.375 263.597 216.921 265.868 216.442C268.138 215.963 274.629 227.159 274.629 227.159L271.573 235.657C271.573 235.657 276.792 248.019 277.549 249.31C278.306 250.6 274.357 281.127 274.629 282.989C274.9 284.851 281.312 310.34 284.703 314.303C288.095 318.267 284.703 342.288 284.703 342.288L146.773 341.677Z" fill="#E6E6E6"/>
<path d="M94.2438 341.5H218.551C205.071 333.534 173.334 334.028 173.334 334.028C173.334 334.028 195.346 318.831 187.228 309.096C179.11 299.36 157.376 320.685 157.376 320.685C157.376 320.685 184.708 288.899 174.512 280.972C164.316 273.045 137.005 315.787 137.005 315.787C137.005 315.787 153.613 270.565 143.624 269.274C133.635 267.984 123.196 312.163 123.196 312.163C123.196 312.163 126.766 271.793 118.377 272.944C109.987 274.096 114.05 326.781 114.05 326.781C114.05 326.781 105.618 299.924 102.005 308.501C98.3921 317.077 105.668 335.458 105.668 335.458C97.2997 335.527 94.9078 339.19 94.2438 341.5Z" fill="#F0F0F0"/>
<path d="M145.38 137.024L156.704 125.612L157.49 118.983L163.944 106.574L165.451 105.856L159.196 119.802V124.329L169.842 121.401L173.797 112.06L178.303 107.656L179.095 108.939L175.283 113.157L172.562 123.031L158.047 128.138L143.895 149.463L145.38 137.024Z" fill="#E6E6E6"/>
<path d="M142.417 127.404L142.11 131.855L128.316 119.392L120.226 118.264L113.779 114.123L114.179 113.644L120.276 117.244L126.781 117.113L120.126 109.294L113.779 104.975L114.179 104.666L120.505 108.475L131.172 118.674L129.551 108.745L126.973 104.666L126.681 103.515L129.879 107.934L137.291 104.666L137.955 105.137L130.365 108.707L132.457 119.624L142.417 127.404Z" fill="#E6E6E6"/>
<path d="M184.458 106.999C184.643 105.191 181.937 104.102 179.095 104.102C176.998 104.094 174.906 103.892 172.841 103.499C173.062 102.835 172.841 102.07 173.133 100.934C173.812 98.454 173.269 96.8469 170.656 94.9231C168.043 92.9993 165.558 93.5865 160.167 94.6759C154.777 95.7653 155.376 93.0456 150.307 90.8668C145.237 88.688 128.237 90.9982 125.238 93.5865C123.439 95.1317 116.013 94.8536 114.179 98.4849C112.344 102.116 100.184 102.109 101.969 105.006C103.754 107.903 105.668 107.934 105.668 113.01C105.668 118.086 109.795 116.101 114.157 117.646C118.52 119.191 117.727 115.714 120.483 115.282C123.239 114.849 122.461 114.602 125.217 112.964C127.973 111.326 127.687 113.149 132.357 115.282C134.934 116.456 135.763 114.749 136.42 112.964C136.948 114.076 136.541 115.784 137.591 117.646C138.433 119.137 141.453 119.261 144.281 118.766C147.808 124.947 148.822 119.539 152.763 119.678C156.926 119.856 162.916 115.869 165.808 115.282C168.7 114.695 168.864 113.953 172.07 116.217C175.275 118.48 187.892 112.647 188.956 110.036C190.02 107.424 184.279 108.838 184.458 106.999Z" fill="#F0F0F0"/>
<path d="M308.901 168.871C325.285 168.871 338.567 154.498 338.567 136.769C338.567 119.039 325.285 104.666 308.901 104.666C292.516 104.666 279.234 119.039 279.234 136.769C279.234 154.498 292.516 168.871 308.901 168.871Z" fill="#FAFAFA"/>
<path d="M361.851 130.441C361.851 129.054 361.341 127.723 360.435 126.742C359.528 125.761 358.299 125.21 357.017 125.21C356.545 125.209 356.076 125.285 355.625 125.434C355.865 123.69 355.716 121.909 355.191 120.239C354.665 118.57 353.777 117.061 352.602 115.838C351.427 114.616 349.999 113.716 348.437 113.213C346.874 112.71 345.224 112.62 343.622 112.949C342.62 111.143 341.1 109.74 339.294 108.953C337.488 108.167 335.494 108.039 333.615 108.589C331.736 109.14 330.074 110.339 328.882 112.004C327.689 113.669 327.031 115.71 327.008 117.816H326.858C324.713 117.884 322.678 118.854 321.184 120.52C319.689 122.185 318.854 124.415 318.854 126.736C318.854 129.057 319.689 131.287 321.184 132.953C322.678 134.618 324.713 135.588 326.858 135.656H357.124C358.385 135.626 359.585 135.064 360.468 134.089C361.351 133.115 361.847 131.806 361.851 130.441Z" fill="#F5F5F5"/>
<path d="M310.079 177.633C310.079 176.246 309.57 174.915 308.663 173.934C307.757 172.953 306.527 172.402 305.245 172.402C304.776 172.403 304.31 172.475 303.86 172.619C303.932 172.089 303.968 171.554 303.967 171.019C303.965 169.391 303.631 167.783 302.99 166.311C302.348 164.838 301.415 163.535 300.257 162.496C299.099 161.457 297.743 160.707 296.287 160.299C294.83 159.89 293.308 159.834 291.829 160.133C290.82 158.339 289.299 156.95 287.496 156.174C285.693 155.397 283.705 155.276 281.833 155.829C279.961 156.382 278.306 157.579 277.117 159.239C275.928 160.899 275.271 162.932 275.243 165.031H275.1C273.997 164.996 272.899 165.201 271.871 165.633C270.842 166.066 269.904 166.717 269.113 167.549C268.321 168.381 267.692 169.376 267.262 170.476C266.832 171.575 266.611 172.757 266.611 173.951C266.611 175.145 266.832 176.327 267.262 177.427C267.692 178.527 268.321 179.522 269.113 180.354C269.904 181.185 270.842 181.837 271.871 182.269C272.899 182.702 273.997 182.906 275.1 182.871H305.36C306.623 182.841 307.826 182.275 308.708 181.296C309.591 180.316 310.083 179.001 310.079 177.633Z" fill="#F5F5F5"/>
<path d="M394.003 243.754C394.003 243.067 393.878 242.387 393.635 241.753C393.392 241.118 393.036 240.541 392.587 240.056C392.138 239.57 391.605 239.185 391.019 238.922C390.432 238.659 389.804 238.524 389.169 238.524C388.699 238.522 388.232 238.598 387.784 238.748C387.996 237.175 387.893 235.571 387.481 234.045C387.07 232.519 386.36 231.107 385.399 229.904C384.439 228.702 383.251 227.737 381.915 227.075C380.58 226.413 379.128 226.07 377.659 226.069C377.027 226.071 376.396 226.134 375.774 226.254C374.765 224.461 373.244 223.071 371.441 222.295C369.638 221.519 367.65 221.398 365.778 221.951C363.906 222.504 362.251 223.7 361.062 225.36C359.873 227.02 359.216 229.053 359.188 231.153H359.045C356.86 231.153 354.764 232.092 353.219 233.764C351.674 235.436 350.806 237.704 350.806 240.069C350.806 242.434 351.674 244.701 353.219 246.374C354.764 248.046 356.86 248.985 359.045 248.985H389.305C390.564 248.949 391.76 248.381 392.637 247.404C393.515 246.427 394.005 245.117 394.003 243.754Z" fill="#F5F5F5"/>
<path d="M325.673 252.562C325.673 251.724 325.365 250.92 324.817 250.328C324.27 249.735 323.527 249.402 322.752 249.402C322.467 249.403 322.184 249.447 321.91 249.534C322.045 248.582 321.988 247.611 321.743 246.686C321.497 245.76 321.069 244.904 320.488 244.175C319.907 243.447 319.187 242.863 318.377 242.465C317.567 242.067 316.687 241.863 315.798 241.869C315.415 241.868 315.032 241.907 314.656 241.985C314.041 240.914 313.123 240.086 312.039 239.625C310.954 239.165 309.761 239.095 308.637 239.428C307.513 239.761 306.519 240.477 305.802 241.472C305.085 242.466 304.685 243.684 304.66 244.944H304.574C303.248 244.944 301.977 245.514 301.04 246.528C300.103 247.543 299.576 248.918 299.576 250.353C299.576 251.787 300.103 253.163 301.04 254.177C301.977 255.191 303.248 255.761 304.574 255.761H322.86C323.622 255.733 324.344 255.382 324.87 254.784C325.396 254.186 325.684 253.388 325.673 252.562Z" fill="#F5F5F5"/>
<path d="M249.546 116.974C249.549 116.481 249.445 115.993 249.242 115.552C249.039 115.11 248.742 114.726 248.377 114.432C248.011 114.138 247.586 113.941 247.136 113.858C246.687 113.774 246.226 113.807 245.79 113.953C245.918 113.002 245.856 112.033 245.607 111.111C245.358 110.188 244.929 109.335 244.349 108.608C243.769 107.881 243.051 107.298 242.243 106.897C241.436 106.497 240.559 106.289 239.671 106.288C239.288 106.288 238.905 106.326 238.529 106.404C237.918 105.328 237 104.495 235.914 104.03C234.828 103.566 233.632 103.495 232.506 103.828C231.379 104.162 230.383 104.882 229.667 105.88C228.951 106.878 228.553 108.1 228.533 109.363H228.44C227.115 109.363 225.843 109.933 224.906 110.948C223.969 111.962 223.442 113.337 223.442 114.772C223.442 116.206 223.969 117.582 224.906 118.596C225.843 119.61 227.115 120.18 228.44 120.18H246.733C247.496 120.15 248.218 119.797 248.744 119.198C249.27 118.599 249.558 117.8 249.546 116.974Z" fill="#F5F5F5"/>
<path d="M237.758 377.079C314.215 377.079 376.195 373.163 376.195 368.333C376.195 363.503 314.215 359.587 237.758 359.587C161.301 359.587 99.3203 363.503 99.3203 368.333C99.3203 373.163 161.301 377.079 237.758 377.079Z" fill="#F5F5F5"/>
<path d="M136.313 368.712H110.152C110.152 368.712 115.364 360.089 117.585 361.186C120.441 362.608 122.583 354.797 125.81 356.651C126.938 357.3 126.388 359.386 127.095 360.228C128.273 361.619 129.758 361.349 131.179 362.114C133.957 363.612 134.942 365.59 136.313 368.712Z" fill="#C4C4C4"/>
<path opacity="0.2" d="M136.313 368.712H110.152C110.152 368.712 115.364 360.089 117.585 361.186C120.441 362.608 122.583 354.797 125.81 356.651C126.938 357.3 126.388 359.386 127.095 360.228C128.273 361.619 129.758 361.349 131.179 362.114C133.957 363.612 134.942 365.59 136.313 368.712Z" fill="black"/>
<path d="M113.015 366.309C113.015 366.309 114.729 355.531 113.543 353.947C112.358 352.363 112.115 359.834 112.115 359.834C112.115 359.834 108.167 344.25 105.618 344.196C103.069 344.142 108.645 357.709 108.645 357.709C108.645 357.709 97.7497 338.44 94.5796 340.232C91.4094 342.025 106.004 359.108 106.004 359.108C106.004 359.108 98.0282 351.691 96.2717 353.784C94.5153 355.878 105.125 362.283 105.125 362.283C105.125 362.283 100.449 361.148 100.449 362.832C100.449 364.516 108.331 367.267 113.015 366.309Z" fill="#C4C4C4"/>
<path opacity="0.2" d="M113.015 366.309C113.015 366.309 114.729 355.531 113.543 353.947C112.358 352.363 112.115 359.834 112.115 359.834C112.115 359.834 108.167 344.25 105.618 344.196C103.069 344.142 108.645 357.709 108.645 357.709C108.645 357.709 97.7497 338.44 94.5796 340.232C91.4094 342.025 106.004 359.108 106.004 359.108C106.004 359.108 98.0282 351.691 96.2717 353.784C94.5153 355.878 105.125 362.283 105.125 362.283C105.125 362.283 100.449 361.148 100.449 362.832C100.449 364.516 108.331 367.267 113.015 366.309Z" fill="#02FF1B"/>
<path d="M114.586 364.771C114.586 364.771 122.776 363.164 123.568 361.727C124.361 360.29 118.97 362.222 118.97 362.222C118.97 362.222 128.966 354.495 128.316 352.332C127.667 350.169 119.513 358.675 119.513 358.675C119.513 358.675 130.223 344.119 128.031 341.971C125.839 339.823 117.763 356.852 117.763 356.852C117.763 356.852 120.812 348.059 118.82 347.209C116.828 346.36 115.25 357.014 115.25 357.014C115.25 357.014 114.743 352.78 113.537 353.259C112.33 353.738 112.58 361.125 114.586 364.771Z" fill="#C4C4C4"/>
<path opacity="0.2" d="M114.586 364.771C114.586 364.771 122.776 363.164 123.568 361.727C124.361 360.29 118.97 362.222 118.97 362.222C118.97 362.222 128.966 354.495 128.316 352.332C127.667 350.169 119.513 358.675 119.513 358.675C119.513 358.675 130.223 344.119 128.031 341.971C125.839 339.823 117.763 356.852 117.763 356.852C117.763 356.852 120.812 348.059 118.82 347.209C116.828 346.36 115.25 357.014 115.25 357.014C115.25 357.014 114.743 352.78 113.537 353.259C112.33 353.738 112.58 361.125 114.586 364.771Z" fill="#02FF1B"/>
<path d="M115.2 363.589C115.2 363.589 123.104 355.021 122.968 352.772C122.832 350.524 118.234 357.13 118.234 357.13C118.234 357.13 123.811 340.279 121.554 338.448C119.298 336.617 116.328 352.772 116.328 352.772C116.328 352.772 117.82 327.801 113.9 327.276C109.98 326.75 113.093 352.232 113.093 352.232C113.093 352.232 110.237 340.016 107.431 340.696C104.625 341.376 110.43 354.503 110.43 354.503C110.43 354.503 106.86 350.246 105.875 351.776C104.89 353.306 110.395 361.194 115.2 363.589Z" fill="#C4C4C4"/>
<path opacity="0.4" d="M115.2 363.589C115.2 363.589 123.104 355.021 122.968 352.772C122.832 350.524 118.234 357.13 118.234 357.13C118.234 357.13 123.811 340.279 121.554 338.448C119.298 336.617 116.328 352.772 116.328 352.772C116.328 352.772 117.82 327.801 113.9 327.276C109.98 326.75 113.093 352.232 113.093 352.232C113.093 352.232 110.237 340.016 107.431 340.696C104.625 341.376 110.43 354.503 110.43 354.503C110.43 354.503 106.86 350.246 105.875 351.776C104.89 353.306 110.395 361.194 115.2 363.589Z" fill="#02FF1B"/>
<path d="M124.789 368.712H103.94C103.94 368.712 108.096 361.843 109.859 362.716C112.165 363.852 113.872 357.624 116.421 359.1C117.32 359.618 116.878 361.287 117.442 361.951C118.377 363.064 119.584 362.847 120.698 363.458C122.904 364.648 123.696 366.224 124.789 368.712Z" fill="#C4C4C4"/>
<path d="M321.732 196.493C321.732 196.493 318.876 200.094 317.876 199.584C316.876 199.074 316.405 198.726 315.02 199.545C313.635 200.364 311.671 200.812 311.771 199.39C311.871 197.969 313.913 196.238 313.913 195.265C313.913 194.291 314.142 192.174 315.149 191.749C316.155 191.324 319.518 189.508 320.282 190.204C320.547 190.522 320.883 190.761 321.259 190.896C321.634 191.032 322.036 191.059 322.424 190.976C323.459 190.845 324.566 191.131 324.302 192.228C324.038 193.325 324.373 193.719 324.238 194.816C324.102 195.914 322.653 196.679 321.732 196.493Z" fill="#C4C4C4"/>
<path opacity="0.6" d="M321.732 196.493C321.732 196.493 318.876 200.094 317.876 199.584C316.876 199.074 316.405 198.726 315.02 199.545C313.635 200.364 311.671 200.812 311.771 199.39C311.871 197.969 313.913 196.238 313.913 195.265C313.913 194.291 314.142 192.174 315.149 191.749C316.155 191.324 319.518 189.508 320.282 190.204C320.547 190.522 320.883 190.761 321.259 190.896C321.634 191.032 322.036 191.059 322.424 190.976C323.459 190.845 324.566 191.131 324.302 192.228C324.038 193.325 324.373 193.719 324.238 194.816C324.102 195.914 322.653 196.679 321.732 196.493Z" fill="#02FF1B"/>
<path d="M330.149 189.385C330.263 189.279 330.368 189.163 330.464 189.037C331.128 188.172 331.299 186.797 332.249 186.333C332.746 186.155 333.28 186.128 333.791 186.256C336.647 186.704 341.916 187.206 342.109 191.301C342.259 194.477 339.024 196.663 338.296 199.553C337.632 202.18 337.247 205.34 335.033 206.63C333.605 207.457 331.87 207.186 330.335 206.63C328.8 206.074 327.343 205.286 325.751 205.085C323.388 204.768 319.382 206.823 317.283 205.348C314.099 203.115 317.847 196.849 319.275 194.623C320.54 192.55 322.454 191.041 324.666 190.374C326.379 189.926 328.707 190.737 330.149 189.385Z" fill="#C4C4C4"/>
<path opacity="0.5" d="M330.149 189.385C330.263 189.279 330.368 189.163 330.464 189.037C331.128 188.172 331.299 186.797 332.249 186.333C332.746 186.155 333.28 186.128 333.791 186.256C336.647 186.704 341.916 187.206 342.109 191.301C342.259 194.477 339.024 196.663 338.296 199.553C337.632 202.18 337.247 205.34 335.033 206.63C333.605 207.457 331.87 207.186 330.335 206.63C328.8 206.074 327.343 205.286 325.751 205.085C323.388 204.768 319.382 206.823 317.283 205.348C314.099 203.115 317.847 196.849 319.275 194.623C320.54 192.55 322.454 191.041 324.666 190.374C326.379 189.926 328.707 190.737 330.149 189.385Z" fill="#02FF1B"/>
<path d="M362.951 219.842C362.951 219.842 367.542 219.116 367.742 220.615C367.942 222.114 367.92 222.987 369.391 223.558C370.862 224.13 372.404 225.691 371.19 227.027C369.977 228.364 367.392 228.047 366.571 228.974C365.75 229.902 363.958 231.841 363.001 231.292C362.044 230.744 358.603 229.098 358.717 227.615C358.831 226.131 358.717 225.59 358.003 224.671C357.289 223.752 356.86 222.353 357.903 221.488C358.945 220.622 359.067 219.942 360.045 218.946C361.023 217.949 362.558 218.722 362.951 219.842Z" fill="#C4C4C4"/>
<path opacity="0.6" d="M362.951 219.842C362.951 219.842 367.542 219.116 367.742 220.615C367.942 222.114 367.92 222.987 369.391 223.558C370.862 224.13 372.404 225.691 371.19 227.027C369.977 228.364 367.392 228.047 366.571 228.974C365.75 229.902 363.958 231.841 363.001 231.292C362.044 230.744 358.603 229.098 358.717 227.615C358.831 226.131 358.717 225.59 358.003 224.671C357.289 223.752 356.86 222.353 357.903 221.488C358.945 220.622 359.067 219.942 360.045 218.946C361.023 217.949 362.558 218.722 362.951 219.842Z" fill="#02FF1B"/>
<path d="M349.692 205.958C349.58 205.95 349.468 205.95 349.356 205.958C348.592 206.043 347.843 206.668 347.122 206.382C346.772 206.198 346.478 205.912 346.272 205.556C344.965 203.701 342.445 200.495 344.308 198.231C345.736 196.47 348.507 197.142 350.277 196.029C351.884 195.017 353.605 193.572 355.383 194.136C355.937 194.373 356.441 194.727 356.867 195.179C357.292 195.63 357.63 196.169 357.86 196.763C358.318 197.95 358.878 199.088 359.531 200.163C360.616 201.654 363.715 202.828 364.108 204.799C364.714 207.766 359.731 208.963 357.917 209.326C356.261 209.716 354.531 209.441 353.048 208.554C351.927 207.789 351.091 206.058 349.692 205.958Z" fill="#C4C4C4"/>
<path opacity="0.6" d="M349.692 205.958C349.58 205.95 349.468 205.95 349.356 205.958C348.592 206.043 347.843 206.668 347.122 206.382C346.772 206.198 346.478 205.912 346.272 205.556C344.965 203.701 342.445 200.495 344.308 198.231C345.736 196.47 348.507 197.142 350.277 196.029C351.884 195.017 353.605 193.572 355.383 194.136C355.937 194.373 356.441 194.727 356.867 195.179C357.292 195.63 357.63 196.169 357.86 196.763C358.318 197.95 358.878 199.088 359.531 200.163C360.616 201.654 363.715 202.828 364.108 204.799C364.714 207.766 359.731 208.963 357.917 209.326C356.261 209.716 354.531 209.441 353.048 208.554C351.927 207.789 351.091 206.058 349.692 205.958Z" fill="#02FF1B"/>
<path d="M338.432 207.101C338.518 207.028 338.599 206.948 338.675 206.862C339.21 206.259 339.389 205.255 340.103 204.977C340.476 204.861 340.872 204.861 341.245 204.977C343.352 205.479 347.186 206.167 347.121 209.195C347.064 211.513 344.572 212.966 343.88 215.052C343.259 216.945 342.809 219.247 341.117 220.066C339.996 220.469 338.774 220.375 337.718 219.803C336.664 219.213 335.559 218.734 334.419 218.374C332.691 217.995 329.636 219.27 328.165 218.057C325.93 216.218 329.014 211.822 330.185 210.277C331.221 208.821 332.711 207.821 334.377 207.465C335.64 207.264 337.311 208.005 338.432 207.101Z" fill="#C4C4C4"/>
<path opacity="0.5" d="M338.432 207.101C338.518 207.028 338.599 206.948 338.675 206.862C339.21 206.259 339.389 205.255 340.103 204.977C340.476 204.861 340.872 204.861 341.245 204.977C343.352 205.479 347.186 206.167 347.121 209.195C347.064 211.513 344.572 212.966 343.88 215.052C343.259 216.945 342.809 219.247 341.117 220.066C339.996 220.469 338.774 220.375 337.718 219.803C336.664 219.213 335.559 218.734 334.419 218.374C332.691 217.995 329.636 219.27 328.165 218.057C325.93 216.218 329.014 211.822 330.185 210.277C331.221 208.821 332.711 207.821 334.377 207.465C335.64 207.264 337.311 208.005 338.432 207.101Z" fill="#02FF1B"/>
<path d="M326.658 222.368C326.718 222.321 326.773 222.266 326.822 222.206C327.187 221.804 327.315 221.125 327.801 220.931C328.053 220.855 328.32 220.855 328.572 220.931C330 221.264 332.577 221.704 332.534 223.767C332.499 225.359 330.814 226.309 330.35 227.715C329.928 228.998 329.636 230.551 328.486 231.099C328.106 231.24 327.703 231.297 327.302 231.267C326.901 231.236 326.509 231.119 326.151 230.921C325.439 230.522 324.693 230.199 323.924 229.956C322.76 229.701 320.703 230.558 319.711 229.739C318.204 228.503 320.282 225.536 321.075 224.493C321.771 223.512 322.773 222.839 323.895 222.6C324.766 222.484 325.894 222.979 326.658 222.368Z" fill="#C4C4C4"/>
<path opacity="0.5" d="M326.658 222.368C326.718 222.321 326.773 222.266 326.822 222.206C327.187 221.804 327.315 221.125 327.801 220.931C328.053 220.855 328.32 220.855 328.572 220.931C330 221.264 332.577 221.704 332.534 223.767C332.499 225.359 330.814 226.309 330.35 227.715C329.928 228.998 329.636 230.551 328.486 231.099C328.106 231.24 327.703 231.297 327.302 231.267C326.901 231.236 326.509 231.119 326.151 230.921C325.439 230.522 324.693 230.199 323.924 229.956C322.76 229.701 320.703 230.558 319.711 229.739C318.204 228.503 320.282 225.536 321.075 224.493C321.771 223.512 322.773 222.839 323.895 222.6C324.766 222.484 325.894 222.979 326.658 222.368Z" fill="#02FF1B"/>
<path d="M347.143 335.52C347.143 335.52 352.505 335.651 355.618 318.19C358.731 300.728 359.566 295.011 362.394 296.471C365.221 297.932 357.553 322.03 357.553 322.03C357.553 322.03 360.702 323.266 365.221 312.156C369.741 301.045 372.847 292.917 376.238 297.128C379.63 301.339 368.891 319.38 361.687 326.712C361.687 326.712 362.958 329.462 368.606 324.572C374.253 319.681 377.93 315.169 380.744 318.19C383.557 321.211 383.6 324.27 379.051 324.27C374.503 324.27 366.306 329.996 364.914 335.52C364.914 335.52 371.14 333.975 376.231 335.52C381.322 337.065 384.421 342.535 379.051 344.56C373.682 346.584 368.57 340.086 364.914 344.56C364.914 344.56 375.381 345.95 376.231 353.908C377.081 361.866 363.515 364.54 363.515 364.54L319.154 351.791L326.522 330.289L347.143 335.52Z" fill="#C4C4C4"/>
<path d="M332.998 336.03C332.998 336.03 340.174 298.851 343.044 293.165C343.044 293.165 350.399 282.301 351.391 276.607C352.383 270.913 345.572 235.156 345.572 235.156L326.294 225.536C326.294 225.536 321.032 213.947 317.198 211.235L319.118 209.103C319.118 209.103 326.772 216.667 328.45 224.231L345.586 230.304L344.244 222.268L337.147 213.823L334.341 197.088L337.147 196.779L339.781 210.184L345.572 215.4L349.97 204.088L349.735 195.721L351.377 194.515L351.998 202.806L360.28 188.543L362.015 190.15L352.019 206.885L351.412 218.289L353.597 225.76L363.172 220.352L367.706 210.996L370.098 210.223L365.814 222.237L356.717 233.41C356.717 233.41 361.266 266.424 364.614 275.131C364.614 275.131 354.804 293.056 355.996 301.54C356.839 307.199 357.959 312.806 359.352 318.337L354.804 359.796L328.436 357.517L332.998 336.03Z" fill="#C4C4C4"/>
<path opacity="0.2" d="M332.998 336.03C332.998 336.03 340.174 298.851 343.044 293.165C343.044 293.165 350.399 282.301 351.391 276.607C352.383 270.913 345.572 235.156 345.572 235.156L326.294 225.536C326.294 225.536 321.032 213.947 317.198 211.235L319.118 209.103C319.118 209.103 326.772 216.667 328.45 224.231L345.586 230.304L344.244 222.268L337.147 213.823L334.341 197.088L337.147 196.779L339.781 210.184L345.572 215.4L349.97 204.088L349.735 195.721L351.377 194.515L351.998 202.806L360.28 188.543L362.015 190.15L352.019 206.885L351.412 218.289L353.597 225.76L363.172 220.352L367.706 210.996L370.098 210.223L365.814 222.237L356.717 233.41C356.717 233.41 361.266 266.424 364.614 275.131C364.614 275.131 354.804 293.056 355.996 301.54C356.839 307.199 357.959 312.806 359.352 318.337L354.804 359.796L328.436 357.517L332.998 336.03Z" fill="#02FF1B"/>
<path d="M262.684 356.96C260.548 357.985 258.71 359.621 257.369 361.692C256.028 363.762 255.234 366.19 255.073 368.712H287.738L290.965 350.833L276.05 345.695C276.05 345.695 275.122 322.208 271.866 319.225C268.61 316.243 268.046 323.861 270.588 335.62C270.588 335.62 264.09 327.778 259.571 329.802C255.051 331.827 267.817 347.442 267.817 347.442C267.817 347.442 259.863 344.791 255.908 348.546C251.952 352.301 262.684 356.96 262.684 356.96Z" fill="#C4C4C4"/>
<path d="M265.083 364.733C265.083 364.733 250.196 363.442 245.205 368.712H283.49V362.222C283.49 362.222 276.243 347.781 272.573 347.441C268.903 347.101 271.859 359.579 271.859 359.579C271.859 359.579 263.947 349.404 259.985 354.426C256.022 359.448 265.083 364.733 265.083 364.733Z" fill="#C4C4C4"/>
<path opacity="0.2" d="M265.083 364.733C265.083 364.733 250.196 363.442 245.205 368.712H283.49V362.222C283.49 362.222 276.243 347.781 272.573 347.441C268.903 347.101 271.859 359.579 271.859 359.579C271.859 359.579 263.947 349.404 259.985 354.426C256.022 359.448 265.083 364.733 265.083 364.733Z" fill="#02FF1B"/>
<path d="M340.738 352.564C340.738 352.564 346.764 324.664 345.636 319.735C344.508 314.805 319.839 285.646 315.413 281.876C310.986 278.105 299.312 280.501 280.855 292.554C262.398 304.607 277.842 365.891 279.348 366.834C280.855 367.777 340.738 352.564 340.738 352.564Z" fill="#C4C4C4"/>
<path opacity="0.6" d="M340.738 352.564C340.738 352.564 280.855 367.785 279.334 366.85C278.135 366.077 268.11 327.113 273.379 305.163C274.722 299.531 277.078 295.026 280.841 292.569C299.298 280.516 310.971 278.129 315.398 281.892C319.825 285.654 344.494 314.805 345.622 319.75C346.75 324.695 340.738 352.564 340.738 352.564Z" fill="#02FF1B"/>
<path opacity="0.1" d="M340.738 352.564C340.738 352.564 280.855 367.785 279.334 366.85C278.135 366.077 268.11 327.113 273.379 305.163C274.893 318.862 277.135 337.876 278.206 340.302C279.898 344.165 297.163 340.302 297.163 340.302L310.686 327.337L312.664 337.065L328.2 334.747L340.738 352.564Z" fill="black"/>
<path d="M371.39 368.712L366.728 360.306L357.553 353.855C357.553 353.855 349.028 341.562 345.636 338.897C342.245 336.231 336.597 339.878 336.597 339.878C336.597 339.878 328.307 343.865 325.294 346.963C322.281 350.061 311.014 348.616 305.302 350.586C299.59 352.557 288.352 365.266 283.454 364.942C281.212 364.803 278.734 366.657 276.707 368.712H371.39Z" fill="#263238"/>
<path d="M322.853 215.453C322.853 215.453 316.427 219.146 315.413 216.998C314.399 214.85 313.985 213.622 311.55 213.622C309.115 213.622 306.088 212.193 307.223 209.542C308.359 206.892 312.307 205.88 313.057 204.041C313.806 202.203 315.506 198.339 317.198 198.633C318.89 198.927 324.731 199.344 325.295 201.592C325.859 203.84 326.237 204.582 327.744 205.533C329.25 206.483 330.6 208.314 329.443 210.168C328.286 212.023 328.501 213.151 327.558 215.129C326.616 217.106 323.981 216.882 322.853 215.453Z" fill="#C4C4C4"/>
<path opacity="0.6" d="M322.853 215.453C322.853 215.453 316.427 219.146 315.413 216.998C314.399 214.85 313.985 213.622 311.55 213.622C309.115 213.622 306.088 212.193 307.223 209.542C308.359 206.892 312.307 205.88 313.057 204.041C313.806 202.203 315.506 198.339 317.198 198.633C318.89 198.927 324.731 199.344 325.295 201.592C325.859 203.84 326.237 204.582 327.744 205.533C329.25 206.483 330.6 208.314 329.443 210.168C328.286 212.023 328.501 213.151 327.558 215.129C326.616 217.106 323.981 216.882 322.853 215.453Z" fill="#02FF1B"/>
<path d="M363.893 184.262C363.893 184.262 368.62 184.479 368.891 185.769C369.163 187.059 369.163 187.739 370.712 188.473C372.261 189.207 373.911 190.791 372.704 191.633C371.497 192.475 368.813 191.795 367.999 192.406C367.185 193.016 365.393 194.291 364.379 193.65C363.365 193.008 359.738 191.077 359.795 189.879C359.871 189.414 359.835 188.936 359.69 188.49C359.545 188.045 359.296 187.648 358.967 187.337C358.188 186.457 357.696 185.22 358.745 184.718C359.795 184.216 359.895 183.629 360.852 183.011C361.808 182.393 363.422 183.25 363.893 184.262Z" fill="#C4C4C4"/>
<path opacity="0.6" d="M363.893 184.262C363.893 184.262 368.62 184.479 368.891 185.769C369.163 187.059 369.163 187.739 370.712 188.473C372.261 189.207 373.911 190.791 372.704 191.633C371.497 192.475 368.813 191.795 367.999 192.406C367.185 193.016 365.393 194.291 364.379 193.65C363.365 193.008 359.738 191.077 359.795 189.879C359.871 189.414 359.835 188.936 359.69 188.49C359.545 188.045 359.296 187.648 358.967 187.337C358.188 186.457 357.696 185.22 358.745 184.718C359.795 184.216 359.895 183.629 360.852 183.011C361.808 182.393 363.422 183.25 363.893 184.262Z" fill="#02FF1B"/>
<path d="M366.035 214.704C365.924 214.696 365.812 214.696 365.7 214.704C364.936 214.789 364.186 215.423 363.465 215.129C363.118 214.942 362.824 214.656 362.615 214.302C361.309 212.448 358.795 209.242 360.652 206.978C362.08 205.224 364.85 205.888 366.621 204.776C368.227 203.771 369.948 202.319 371.733 202.883C372.287 203.12 372.792 203.474 373.217 203.925C373.643 204.376 373.981 204.915 374.211 205.51C374.662 206.699 375.219 207.837 375.874 208.909C376.967 210.408 380.058 211.575 380.458 213.545C381.058 216.512 376.081 217.71 374.268 218.073C372.609 218.466 370.876 218.191 369.391 217.3C368.277 216.535 367.442 214.804 366.035 214.704Z" fill="#C4C4C4"/>
<path opacity="0.5" d="M366.035 214.704C365.924 214.696 365.812 214.696 365.7 214.704C364.936 214.789 364.186 215.423 363.465 215.129C363.118 214.942 362.824 214.656 362.615 214.302C361.309 212.448 358.795 209.242 360.652 206.978C362.08 205.224 364.85 205.888 366.621 204.776C368.227 203.771 369.948 202.319 371.733 202.883C372.287 203.12 372.792 203.474 373.217 203.925C373.643 204.376 373.981 204.915 374.211 205.51C374.662 206.699 375.219 207.837 375.874 208.909C376.967 210.408 380.058 211.575 380.458 213.545C381.058 216.512 376.081 217.71 374.268 218.073C372.609 218.466 370.876 218.191 369.391 217.3C368.277 216.535 367.442 214.804 366.035 214.704Z" fill="#02FF1B"/>
<path d="M355.804 184.1C360.616 186.642 361.452 183.768 362.58 185.854C363.708 187.94 369.363 186.928 368.42 189.779C367.478 192.63 364.465 195.705 366.35 197.127C368.235 198.548 366.264 198.34 362.166 198.672C358.067 199.004 359.952 202.976 355.804 200.557C351.655 198.139 348.664 201.237 346.765 201.33C344.865 201.423 340.738 203.261 338.853 198.672C336.968 194.083 339.232 192.452 339.61 188.581C339.989 184.71 334.527 184.1 340.738 180.855C346.95 177.61 351.977 178.413 353.133 180.855C354.29 183.296 353.919 183.103 355.804 184.1Z" fill="#C4C4C4"/>
<path opacity="0.5" d="M355.804 184.1C360.616 186.642 361.452 183.768 362.58 185.854C363.708 187.94 369.363 186.928 368.42 189.779C367.478 192.63 364.465 195.705 366.35 197.127C368.235 198.548 366.264 198.34 362.166 198.672C358.067 199.004 359.952 202.976 355.804 200.557C351.655 198.139 348.664 201.237 346.765 201.33C344.865 201.423 340.738 203.261 338.853 198.672C336.968 194.083 339.232 192.452 339.61 188.581C339.989 184.71 334.527 184.1 340.738 180.855C346.95 177.61 351.977 178.413 353.133 180.855C354.29 183.296 353.919 183.103 355.804 184.1Z" fill="#02FF1B"/>
<path d="M329.821 195.079C332.006 193.711 332.606 190.25 334.241 190.814C335.876 191.378 339.131 193.07 340.702 192.143C342.273 191.216 344.501 191.262 344.651 193.008C344.801 194.755 342.566 197.644 343.458 199.506C344.351 201.368 343.737 203.285 340.702 203.771C337.668 204.258 336.026 205.541 333.648 206.506C331.27 207.472 331.713 204.189 329.185 203.153C326.658 202.118 322.867 199.398 329.821 195.079Z" fill="#C4C4C4"/>
<path opacity="0.6" d="M329.821 195.079C332.006 193.711 332.606 190.25 334.241 190.814C335.876 191.378 339.131 193.07 340.702 192.143C342.273 191.216 344.501 191.262 344.651 193.008C344.801 194.755 342.566 197.644 343.458 199.506C344.351 201.368 343.737 203.285 340.702 203.771C337.668 204.258 336.026 205.541 333.648 206.506C331.27 207.472 331.713 204.189 329.185 203.153C326.658 202.118 322.867 199.398 329.821 195.079Z" fill="#02FF1B"/>
<path d="M368.42 207.704C366.006 206.931 363.257 208.786 362.522 207.109C361.787 205.432 360.716 201.701 359.016 201.09C357.317 200.48 355.832 198.687 356.91 197.374C357.988 196.06 361.472 195.829 362.115 193.882C362.758 191.935 364.471 191.092 366.87 193.163C369.269 195.234 371.261 195.659 373.532 196.879C375.802 198.1 373.261 200.016 374.31 202.697C375.36 205.378 376.081 210.238 368.42 207.704Z" fill="#C4C4C4"/>
<path opacity="0.6" d="M368.42 207.704C366.006 206.931 363.257 208.786 362.522 207.109C361.787 205.432 360.716 201.701 359.016 201.09C357.317 200.48 355.832 198.687 356.91 197.374C357.988 196.06 361.472 195.829 362.115 193.882C362.758 191.935 364.471 191.092 366.87 193.163C369.269 195.234 371.261 195.659 373.532 196.879C375.802 198.1 373.261 200.016 374.31 202.697C375.36 205.378 376.081 210.238 368.42 207.704Z" fill="#02FF1B"/>
<path d="M340.617 186.58C340.617 186.58 337.047 189.323 336.176 188.574C335.305 187.824 334.94 187.353 333.427 187.801C331.913 188.249 329.892 188.149 330.307 186.797C330.721 185.445 333.063 184.293 333.334 183.358C333.605 182.424 334.241 180.438 335.319 180.268C336.397 180.098 340.06 179.24 340.645 180.113C340.836 180.493 341.116 180.812 341.457 181.037C341.798 181.262 342.188 181.386 342.587 181.396C343.615 181.543 344.629 182.107 344.13 183.103C343.63 184.1 343.865 184.571 343.494 185.599C343.123 186.627 341.466 186.959 340.617 186.58Z" fill="#C4C4C4"/>
<path opacity="0.6" d="M340.617 186.58C340.617 186.58 337.047 189.323 336.176 188.574C335.305 187.824 334.94 187.353 333.427 187.801C331.913 188.249 329.892 188.149 330.307 186.797C330.721 185.445 333.063 184.293 333.334 183.358C333.605 182.424 334.241 180.438 335.319 180.268C336.397 180.098 340.06 179.24 340.645 180.113C340.836 180.493 341.116 180.812 341.457 181.037C341.798 181.262 342.188 181.386 342.587 181.396C343.615 181.543 344.629 182.107 344.13 183.103C343.63 184.1 343.865 184.571 343.494 185.599C343.123 186.627 341.466 186.959 340.617 186.58Z" fill="#02FF1B"/>
<path d="M145.873 180.523C145.873 180.523 146.68 172.526 147.458 172.17C148.236 171.815 152.185 173.036 153.599 174.032C154.406 174.556 155.01 175.38 155.298 176.35V178.854L157.483 181.906L154.762 185.398L150.421 182.601C150.421 182.601 145.787 181.303 145.873 180.523Z" fill="#E4897B"/>
<path d="M146.909 184.95L159.504 190.59L152.792 185.39L158.076 179.611C158.076 179.611 172.941 186.564 172.641 194.291C172.341 202.017 161.888 202.311 147.487 200.472L146.909 184.95Z" fill="#C4C4C4"/>
<path opacity="0.1" d="M172.612 194.306C172.362 200.789 164.937 202.033 154.048 201.191C151.978 201.028 149.764 200.789 147.472 200.495L147.251 194.314L146.923 185.004L159.518 190.644L152.792 185.39L158.075 179.611C158.075 179.611 172.912 186.58 172.612 194.306Z" fill="black"/>
<path opacity="0.2" d="M154.034 201.167C151.963 201.005 149.75 200.766 147.458 200.472L147.237 194.291C150.181 195.644 152.588 198.08 154.034 201.167Z" fill="black"/>
<path d="M122.247 164.05C122.118 164.104 115.821 163.919 114.393 169.83C112.965 175.74 117.57 178.908 116.899 184.741C116.228 190.575 113.972 195.713 115.1 197.984C116.228 200.256 122.954 201.507 124.517 194.013C126.081 186.518 119.477 174.218 122.233 170.564C124.989 166.909 122.247 164.05 122.247 164.05Z" fill="#263238"/>
<path d="M143.803 200.264C143.803 200.264 143.003 181.999 126.824 182.192C110.645 182.385 107.439 193.21 111.38 201.554C112.424 208.201 113.102 214.909 113.408 221.642C113.679 230.914 110.052 238.826 123.989 239.845C137.927 240.865 145.495 237.149 145.859 235.21C146.223 233.27 144.495 207.789 143.803 200.264Z" fill="#263238"/>
<path opacity="0.2" d="M143.803 200.264C143.803 200.264 143.003 181.999 126.824 182.192C110.645 182.385 107.439 193.21 111.38 201.554C112.424 208.201 113.102 214.909 113.408 221.642C113.679 230.914 110.052 238.826 123.989 239.845C137.927 240.865 145.495 237.149 145.859 235.21C146.223 233.27 144.495 207.789 143.803 200.264Z" fill="#02FF1B"/>
<path d="M171.891 360.066L167.986 361.557C167.986 361.557 156.191 332.197 151.4 306.824C147.616 298.938 144.278 290.81 141.404 282.487C141.018 281.374 140.647 280.246 140.283 279.11C139.269 275.958 138.326 272.713 137.541 269.499C136.027 263.318 135.063 257.283 135.163 252.006L150.464 255.591L152.756 266.493L153.97 272.296L155.212 278.206L159.146 297.066L171.891 360.066Z" fill="#E4897B"/>
<path opacity="0.2" d="M153.956 272.296L140.268 279.11C139.254 275.958 138.312 272.713 137.526 269.499L152.742 266.493L153.956 272.296Z" fill="black"/>
<path d="M148.436 244.744L154.762 268.479L136.548 274.536L132.836 252.007C132.836 252.007 139.94 240.95 148.436 244.744Z" fill="#C4C4C4"/>
<path opacity="0.6" d="M154.762 268.479L141.311 272.953L136.712 274.498L136.548 274.552L133.692 257.16L132.843 252.022C132.843 252.022 139.94 240.935 148.443 244.736L154.37 266.965L154.762 268.479Z" fill="#02FF1B"/>
<path d="M156.133 269.769L141.66 275.394L138.326 276.692L136.712 274.513L136.562 274.304L141.225 272.388L154.363 266.98L155.419 266.547L156.133 269.769Z" fill="#C4C4C4"/>
<path opacity="0.2" d="M140.346 272.666L140.511 275.1L137.083 276.097L135.655 273.779L135.491 273.818L133.942 256.233C134.427 254.687 134.727 253.799 134.727 253.799L143.788 246.977C143.788 246.977 143.509 251.481 139.225 256.889L140.275 272.087L140.346 272.666Z" fill="black"/>
<path d="M166.358 360.082C166.358 359.525 172.784 359.966 172.784 359.966C172.784 359.966 176.718 364.292 180.538 365.266C184.358 366.24 182.223 368.712 177.953 368.712H167.343C164.316 368.712 166.208 365.923 166.358 360.082Z" fill="#263238"/>
<path d="M173.448 360.855L173.398 360.816C173.394 360.798 173.394 360.78 173.398 360.762C173.395 360.744 173.395 360.726 173.398 360.708C173.394 360.682 173.394 360.656 173.398 360.631C173.398 360.546 173.962 358.946 174.826 358.56C174.956 358.495 175.097 358.461 175.24 358.461C175.383 358.461 175.524 358.495 175.654 358.56C175.947 358.707 176.082 358.907 176.075 359.139C176.075 359.502 175.597 359.873 175.083 360.167C175.564 360.08 176.058 360.139 176.511 360.337C176.594 360.387 176.667 360.454 176.726 360.535C176.785 360.616 176.828 360.709 176.854 360.808C176.909 360.938 176.923 361.084 176.895 361.223C176.866 361.363 176.797 361.488 176.696 361.581C176.533 361.709 176.333 361.769 176.132 361.751C175.195 361.628 174.286 361.324 173.448 360.855ZM174.033 360.739C174.976 361.171 176.175 361.558 176.447 361.287C176.447 361.287 176.554 361.195 176.489 360.924C176.479 360.871 176.457 360.821 176.426 360.779C176.395 360.736 176.356 360.701 176.311 360.677C176.073 360.564 175.814 360.513 175.554 360.53C175.042 360.547 174.533 360.617 174.033 360.739ZM174.926 358.877C174.423 359.234 174.04 359.757 173.833 360.368C174.776 359.974 175.69 359.441 175.711 359.131C175.711 359.031 175.568 358.938 175.483 358.9C175.392 358.849 175.292 358.823 175.19 358.822C175.099 358.821 175.01 358.839 174.926 358.877Z" fill="#C4C4C4"/>
<path d="M136.912 363.11L132.807 363.69C132.807 363.69 126.916 332.313 127.095 306.422C124.908 297.855 123.201 289.152 121.983 280.362C120.555 269.761 119.841 257.955 121.74 249.147L136.02 256.101L136.313 279.28L136.555 298.596L136.912 363.11Z" fill="#E4897B"/>
<path opacity="0.2" d="M136.313 279.296L121.983 280.377C120.555 269.777 119.841 257.971 121.74 249.163L136.02 256.117L136.313 279.296Z" fill="black"/>
<path d="M131.372 360.082C131.372 359.525 137.798 359.966 137.798 359.966C137.798 359.966 141.732 364.292 145.552 365.266C149.372 366.24 147.237 368.712 142.967 368.712H132.357C129.33 368.712 131.222 365.923 131.372 360.082Z" fill="#263238"/>
<path d="M138.462 360.855L138.412 360.816C138.408 360.798 138.408 360.78 138.412 360.762C138.409 360.744 138.409 360.726 138.412 360.708C138.408 360.682 138.408 360.656 138.412 360.631C138.412 360.546 138.976 358.946 139.84 358.56C139.97 358.495 140.111 358.461 140.254 358.461C140.397 358.461 140.538 358.495 140.668 358.56C140.961 358.707 141.097 358.907 141.089 359.139C141.089 359.502 140.611 359.873 140.097 360.167C140.578 360.08 141.073 360.139 141.525 360.337C141.608 360.387 141.681 360.454 141.74 360.535C141.799 360.616 141.843 360.709 141.868 360.808C141.923 360.938 141.937 361.084 141.909 361.223C141.88 361.363 141.811 361.488 141.711 361.581C141.547 361.709 141.347 361.769 141.147 361.751C140.209 361.628 139.3 361.324 138.462 360.855ZM139.047 360.739C139.99 361.171 141.189 361.558 141.461 361.287C141.461 361.287 141.568 361.195 141.504 360.924C141.493 360.871 141.471 360.821 141.44 360.779C141.409 360.736 141.37 360.701 141.325 360.677C141.087 360.564 140.828 360.513 140.568 360.53C140.056 360.547 139.547 360.617 139.047 360.739ZM139.94 358.877C139.438 359.234 139.055 359.757 138.847 360.368C139.79 359.974 140.704 359.441 140.725 359.131C140.725 359.031 140.583 358.938 140.497 358.9C140.406 358.849 140.306 358.823 140.204 358.822C140.114 358.821 140.024 358.839 139.94 358.877Z" fill="#C4C4C4"/>
<path d="M137.869 275.742L137.334 249.016L149.579 245.153C149.579 245.153 148.615 232.892 147.187 226.842C147.187 226.842 127.302 221.488 124.275 228.781C124.275 228.781 124.275 228.897 124.232 228.936L124.182 229.005C124.182 229.005 111.958 238.833 120.176 275.742H137.869Z" fill="#C4C4C4"/>
<path opacity="0.6" d="M137.869 275.742L137.334 249.016L149.579 245.153C149.579 245.153 148.615 232.892 147.187 226.842C147.187 226.842 127.302 221.488 124.275 228.781C124.275 228.781 124.275 228.897 124.232 228.936L124.182 229.005C124.182 229.005 111.958 238.833 120.176 275.742H137.869Z" fill="#02FF1B"/>
<path d="M124.06 225.08V228.727L146.908 226.819V222.507L124.06 225.08Z" fill="#263238"/>
<path d="M131.805 223.541L130.664 223.604L130.962 229.9L132.103 229.837L131.805 223.541Z" fill="#C4C4C4"/>
<path d="M141.782 223.389L136.747 223.877L137.089 228.01L142.124 227.522L141.782 223.389Z" fill="#02FF1B"/>
<path d="M145.853 221.879L144.712 221.942L145.009 228.238L146.15 228.175L145.853 221.879Z" fill="#C4C4C4"/>
<path opacity="0.6" d="M131.805 223.541L130.664 223.604L130.962 229.9L132.103 229.837L131.805 223.541Z" fill="#02FF1B"/>
<path opacity="0.6" d="M145.853 221.879L144.712 221.942L145.009 228.238L146.15 228.175L145.853 221.879Z" fill="#02FF1B"/>
<path d="M147.187 222.94L124.16 225.096C123.618 215.824 123.075 209.859 118.006 193.356C117.563 191.909 117.087 190.363 116.578 188.72C119.701 187.645 122.891 186.814 126.124 186.232C129.54 185.577 132.995 185.182 136.463 185.05C140.946 185.05 146.087 185.56 146.087 185.56C146.087 185.56 146.801 185.746 147.28 190.884C147.701 195.751 148.108 205.394 147.187 222.94Z" fill="#263238"/>
<path opacity="0.2" d="M147.187 222.94L124.167 225.096C123.931 218.738 123.07 212.427 121.597 206.267C121.004 203.779 120.262 200.982 119.319 197.768C118.92 196.393 118.484 194.94 118.006 193.387C117.527 191.834 117.092 190.405 116.578 188.751C119.703 187.673 122.895 186.839 126.131 186.256C129.547 185.599 133.002 185.204 136.47 185.074C140.946 185.035 146.094 185.584 146.094 185.584C146.094 185.584 146.808 185.777 147.287 190.907C147.701 195.744 148.115 205.394 147.187 222.94Z" fill="#02FF1B"/>
<path d="M118.705 274.644L138.876 274.451L138.519 277.735L119.598 277.542L118.705 274.644Z" fill="#C4C4C4"/>
<path d="M124.532 253.667L112.715 251.04L120.569 226.255L117.92 211.204L116.378 202.179L114.164 189.616C114.164 189.616 120.04 186.271 124.096 186.093C124.06 186.093 130.422 211.041 124.532 253.667Z" fill="#C4C4C4"/>
<path d="M138.983 184.177C138.983 184.177 143.339 203.053 145.409 215.778C147.48 228.503 148.729 249.163 148.729 249.163L152.763 247L148.729 223.867C148.729 223.867 149.886 190.992 146.909 184.965L138.983 184.177Z" fill="#C4C4C4"/>
<path d="M138.983 184.177C138.983 184.177 147.551 198.378 148.893 216.666L149.607 212.54C149.607 212.54 148.979 196.956 141.225 183.86L138.983 184.177Z" fill="#263238"/>
<path opacity="0.1" d="M138.983 184.177C138.983 184.177 147.551 198.378 148.893 216.666L149.607 212.54C149.607 212.54 148.979 196.956 141.225 183.86L138.983 184.177Z" fill="#02FF1B"/>
<path d="M124.06 184.95C124.06 184.95 125.303 208.515 119.577 220.568L118.713 218.807C118.713 218.807 123.261 204.984 120.719 186.094L124.06 184.95Z" fill="#263238"/>
<path opacity="0.1" d="M124.06 184.95C124.06 184.95 125.303 208.515 119.577 220.568L118.713 218.807C118.713 218.807 123.261 204.984 120.719 186.094L124.06 184.95Z" fill="#02FF1B"/>
<path d="M141.04 193.441C141.04 193.441 141.875 184.27 141.525 183.011C141.175 181.751 124.632 181.798 121.99 184.177C119.348 186.557 125.66 195.605 125.66 195.605C125.66 195.605 126.11 187.33 126.324 186.789C126.538 186.248 135.313 185.19 136.677 185.607C138.041 186.024 141.04 193.441 141.04 193.441Z" fill="#C4C4C4"/>
<path opacity="0.2" d="M141.04 193.441C141.04 193.441 141.875 184.27 141.525 183.011C141.175 181.751 124.632 181.798 121.99 184.177C119.348 186.557 125.66 195.605 125.66 195.605C125.66 195.605 126.11 187.33 126.324 186.789C126.538 186.248 135.313 185.19 136.677 185.607C138.041 186.024 141.04 193.441 141.04 193.441Z" fill="black"/>
<path d="M134.563 190.59C128.851 189.817 127.18 187.175 127.18 187.175C129.501 184.811 129.08 181.318 128.487 179.14C128.303 178.449 128.064 177.777 127.773 177.131L134.606 178.514C134.449 179.536 134.36 180.569 134.342 181.604C134.316 182.383 134.381 183.161 134.535 183.922C134.999 186.132 136.163 186.163 136.163 186.163C137.376 188.581 134.563 190.59 134.563 190.59Z" fill="#E4897B"/>
<path opacity="0.2" d="M134.356 181.628C134.331 182.406 134.396 183.185 134.549 183.946C131.836 183.559 129.78 181.211 128.487 179.171C128.303 178.48 128.064 177.808 127.773 177.162L134.606 178.545C134.454 179.565 134.37 180.595 134.356 181.628Z" fill="black"/>
<path d="M139.59 166.855C139.59 166.855 140.804 163.077 137.812 158.356C134.82 153.635 128.53 152.608 124.003 158.356C124.003 158.356 121.54 158.518 120.055 163.108C118.57 167.697 120.355 176.32 127.409 178.081C134.463 179.843 139.59 166.855 139.59 166.855Z" fill="#263238"/>
<path d="M129.944 159.036C135.792 157.838 138.262 160.836 139.826 167.264C141.782 175.3 141.125 181.427 133.514 181.172C123.168 180.847 120.226 161.014 129.944 159.036Z" fill="#E4897B"/>
<path d="M135.97 167.689C136.598 168.537 137.317 169.299 138.112 169.961C137.985 170.258 137.784 170.512 137.532 170.693C137.28 170.874 136.987 170.977 136.684 170.989L135.97 167.689Z" fill="#DE5753"/>
<path d="M132.307 167.898C132.407 168.416 132.236 168.895 131.915 168.972C131.593 169.049 131.258 168.686 131.151 168.199C131.043 167.713 131.229 167.203 131.543 167.125C131.857 167.048 132.207 167.38 132.307 167.898Z" fill="#263238"/>
<path d="M131.415 167.157L132.372 166.469C132.372 166.469 132.036 167.535 131.415 167.157Z" fill="#263238"/>
<path d="M138.227 166.422C138.327 166.94 138.148 167.419 137.834 167.489C137.52 167.558 137.177 167.203 137.07 166.716C136.963 166.229 137.148 165.727 137.463 165.65C137.777 165.573 138.127 165.905 138.227 166.422Z" fill="#263238"/>
<path d="M137.334 165.673L138.291 164.993C138.291 164.993 137.955 166.06 137.334 165.673Z" fill="#263238"/>
<path d="M125.41 170.996C125.41 170.996 127.23 165.24 126.124 161.315C126.124 161.315 136.834 153.829 139.597 166.43C139.597 166.43 138.761 154.91 128.673 156.711C118.584 158.511 121.375 174.404 127.409 178.081C127.409 178.081 124.281 174.589 125.41 170.996Z" fill="#263238"/>
<path d="M126.595 172.132C126.409 171.413 125.967 170.803 125.367 170.434C124.767 170.065 124.056 169.967 123.389 170.162C121.619 170.749 121.462 174.944 126.131 174.991C126.802 174.991 127.045 174.218 126.595 172.132Z" fill="#E4897B"/>
<path d="M139.811 171.483C139.811 171.483 138.962 171.815 138.983 172.519C138.997 173.021 140.547 173.168 139.811 171.483Z" fill="#263238"/>
<path d="M126.117 161.316C126.117 161.316 131.829 158.595 136.47 163.549C136.47 163.549 133.799 158.286 126.823 160.203C126.823 160.203 125.538 160.52 126.117 161.316Z" fill="#263238"/>
<path d="M141.575 172.116L139.79 171.251L138.362 174.635L140.147 175.5C140.385 175.614 140.599 175.781 140.774 175.99C140.948 176.199 141.08 176.445 141.161 176.713C141.241 176.982 141.373 177.228 141.548 177.437C141.723 177.646 141.936 177.813 142.175 177.927L156.455 184.88C156.573 184.938 156.701 184.97 156.831 184.974C156.961 184.978 157.09 184.955 157.212 184.904C157.333 184.854 157.444 184.778 157.539 184.681C157.633 184.584 157.709 184.468 157.761 184.339L159.353 180.476C159.407 180.348 159.436 180.209 159.44 180.069C159.444 179.928 159.422 179.788 159.376 179.657C159.329 179.525 159.259 179.405 159.17 179.303C159.08 179.201 158.973 179.119 158.854 179.062L144.531 172.109C144.294 171.994 144.037 171.935 143.778 171.935C143.518 171.935 143.261 171.994 143.024 172.109C142.795 172.213 142.549 172.267 142.3 172.269C142.052 172.27 141.805 172.218 141.575 172.116Z" fill="#C4C4C4"/>
<path opacity="0.7" d="M149.093 174.303L144.595 172.124C144.358 172.01 144.101 171.951 143.842 171.951C143.582 171.951 143.326 172.01 143.088 172.124C142.85 172.237 142.592 172.295 142.332 172.295C142.071 172.295 141.814 172.237 141.575 172.124L139.79 171.259L138.362 174.643L140.147 175.508C140.385 175.622 140.599 175.789 140.774 175.998C140.948 176.207 141.08 176.453 141.161 176.721C141.241 176.989 141.373 177.236 141.548 177.445C141.723 177.654 141.936 177.821 142.175 177.934L146.666 180.113L149.093 174.303Z" fill="#02FF1B"/>
<path opacity="0.7" d="M152.313 182.825L156.519 184.857C156.637 184.915 156.765 184.947 156.895 184.951C157.025 184.955 157.155 184.932 157.276 184.881C157.398 184.831 157.509 184.755 157.603 184.658C157.697 184.561 157.773 184.445 157.826 184.316L159.418 180.453C159.524 180.194 159.531 179.9 159.437 179.635C159.344 179.37 159.157 179.156 158.918 179.039L154.713 177.007L152.313 182.825Z" fill="#02FF1B"/>
<path opacity="0.2" d="M117.927 211.204L116.378 202.18L117.649 200.828C117.649 200.828 119.948 205.896 117.927 211.204Z" fill="black"/>
<path d="M115.064 211.104L118.713 208.415C118.713 208.415 122.69 200.828 124.061 200.828C125.431 200.828 126.203 207.673 125.988 208.175C125.774 208.678 122.09 212.185 121.376 212.139L117.028 216.265L115.064 211.104Z" fill="#E4897B"/>
<path d="M114.129 189.617C111.009 189.841 99.0134 217.941 101.555 224.949C104.097 231.957 119.462 216.033 119.462 216.033L117.52 208.886L112.715 211.861C114.117 209.508 115.66 207.257 117.335 205.123C117.335 205.123 118.006 199.282 117.335 195.002C116.663 190.722 114.129 189.617 114.129 189.617Z" fill="#C4C4C4"/>
<path opacity="0.1" d="M114.129 189.617C111.009 189.841 99.0134 217.941 101.555 224.949C104.097 231.957 119.462 216.033 119.462 216.033L117.52 208.886L112.715 211.861C114.117 209.508 115.66 207.257 117.335 205.123C117.335 205.123 118.006 199.282 117.335 195.002C116.663 190.722 114.129 189.617 114.129 189.617Z" fill="black"/>
<path d="M181.245 306.036L186.464 310.44L187.178 310.247L181.959 305.078L177.932 294.138C177.796 292.592 177.639 290.993 177.425 289.386C177.339 288.737 177.204 288.003 177.068 287.346C176.932 286.689 176.768 286.064 176.611 285.438C176.29 284.178 175.954 282.942 175.611 281.706C174.269 276.846 172.841 272.048 171.377 267.242L169.642 229.716L165.28 230.017L167.964 267.706V267.969L168.029 268.177C169.571 273.014 171.085 277.874 172.498 282.734C172.848 283.947 173.212 285.167 173.512 286.38C173.684 286.983 173.834 287.586 173.976 288.188C174.119 288.791 174.205 289.301 174.298 289.919C174.655 292.361 174.89 294.926 175.133 297.452C175.961 306.878 176.561 316.358 177.146 325.839L175.511 333.82L176.668 343.145L175.511 350.161L176.14 350.354L177.832 342.991L176.839 334.701L178.06 331.031L182.216 346.151L183.644 368.719L185.786 368.58L184.643 345.834V345.703L184.601 345.548L179.952 327.778C179.531 318.784 179.067 309.807 178.432 300.805L181.245 306.036Z" fill="#263238"/>
<path d="M176.354 219.115L170.328 224.848L166.372 223.96C166.372 223.96 160.725 228.835 161.289 229.554C161.853 230.272 163.738 234.066 165.059 234.112C166.379 234.158 171.87 230.527 171.87 230.527L179.01 225.265L176.354 219.115Z" fill="#E4897B"/>
<path d="M204.985 163.301C201.794 165.958 199.031 169.17 196.81 172.804C193.161 178.792 188.62 200.055 186.1 205.007C183.579 209.96 172.62 221.348 172.62 221.348L175.904 229.469C175.904 229.469 191.184 220.089 197.524 210.748C203.864 201.407 210.376 171.63 210.376 171.63L204.985 163.301Z" fill="#C4C4C4"/>
<path opacity="0.6" d="M204.985 163.301C201.794 165.958 199.031 169.17 196.81 172.804C193.161 178.792 188.62 200.055 186.1 205.007C183.579 209.96 172.62 221.348 172.62 221.348L175.904 229.469C175.904 229.469 191.184 220.089 197.524 210.748C203.864 201.407 210.376 171.63 210.376 171.63L204.985 163.301Z" fill="#02FF1B"/>
<path d="M239.7 132.937L231.732 131.245C230.423 130.334 228.971 129.69 227.448 129.344C224.592 128.571 222.45 127.891 221.621 128.888C220.793 129.885 219.365 133.47 220.144 134.003C222.687 135.155 225.314 136.078 227.998 136.761C228.698 136.771 229.396 136.667 230.068 136.452L238.729 139.125L239.7 132.937Z" fill="#E4897B"/>
<path d="M233.074 362.701L239.122 363.388L239.429 359.595L240.257 349.273L234.209 348.577L233.288 359.981L233.074 362.701Z" fill="#E4897B"/>
<path d="M202.879 361.874H208.741L208.791 360.437L208.798 360.259L209.098 351.057L209.105 350.872L209.227 347.341H203.358L202.879 361.874Z" fill="#E4897B"/>
<path opacity="0.2" d="M234.209 348.577L233.288 359.981L239.429 359.595L240.257 349.273L234.209 348.577Z" fill="black"/>
<path opacity="0.2" d="M202.915 361.063H202.922L208.791 360.259H208.798L209.105 351.382H209.098L203.222 351.884L202.922 360.785L202.915 361.063Z" fill="black"/>
<path d="M209.555 361.487H202.415C202.298 361.49 202.185 361.534 202.094 361.614C202.004 361.694 201.941 361.804 201.915 361.928L200.758 367.576C200.734 367.696 200.733 367.821 200.753 367.943C200.774 368.064 200.817 368.18 200.879 368.283C200.942 368.387 201.023 368.476 201.117 368.545C201.211 368.615 201.318 368.663 201.429 368.688C201.491 368.696 201.553 368.696 201.615 368.688C203.921 368.65 205.599 368.495 208.491 368.495C210.276 368.495 215.631 368.696 218.116 368.696C220.6 368.696 220.9 366.069 219.893 365.822C215.374 364.763 211.968 363.28 210.526 361.881C210.259 361.623 209.913 361.482 209.555 361.487Z" fill="#263238"/>
<path d="M239.764 361.287H232.624C232.507 361.289 232.394 361.333 232.304 361.413C232.213 361.493 232.15 361.604 232.124 361.727L230.982 367.375C230.935 367.619 230.98 367.873 231.106 368.081C231.231 368.29 231.428 368.436 231.653 368.488H231.839C234.145 368.488 235.823 368.294 238.722 368.294C240.5 368.294 245.862 368.495 248.339 368.495C250.817 368.495 251.124 365.868 250.117 365.621C245.597 364.555 242.199 363.079 240.749 361.673C240.478 361.414 240.126 361.276 239.764 361.287Z" fill="#263238"/>
<path d="M240.814 358.645H232.21C232.21 358.645 232.924 278.523 223.642 251.465C222.985 260.412 222.214 269.692 221.5 277.426C221.043 282.208 220.594 286.326 220.172 289.456C217.459 309.637 210.626 359.448 210.626 359.448H202.13C202.13 359.448 203.136 311.715 204.143 291.882C205.25 270.356 205.728 223.033 205.778 219H236.894C239.857 235.951 247.454 303.757 240.814 358.645Z" fill="#263238"/>
<path d="M225.62 147.856C225.542 148.165 225.463 148.466 225.363 148.76C224.811 150.439 223.8 151.897 222.464 152.94C222.126 153.205 221.771 153.442 221.401 153.651C220.429 154.21 219.354 154.527 218.255 154.579C217.155 154.631 216.059 154.417 215.046 153.952C214.133 153.533 213.309 152.915 212.625 152.136C209.684 148.93 209.769 145.221 209.434 138.948C209.334 137.483 209.583 136.015 210.156 134.683C210.729 133.352 211.607 132.201 212.707 131.341C213.807 130.481 215.092 129.939 216.44 129.768C217.788 129.597 219.154 129.802 220.408 130.364C226.07 132.875 226.855 142.208 225.62 147.856Z" fill="#E4897B"/>
<path opacity="0.2" d="M222.443 152.94C222.104 153.205 221.749 153.442 221.379 153.651C220.407 154.21 219.332 154.527 218.233 154.579C217.133 154.631 216.037 154.417 215.024 153.952C215.282 153.198 215.63 152.483 216.059 151.827C218.242 151.528 220.457 151.914 222.443 152.94Z" fill="black"/>
<path d="M210.769 161.083C213.625 163.888 220.629 162.853 220.629 162.853C220.629 162.853 224.991 161.555 224.077 160.079C221.5 159.615 220.258 158.317 219.744 156.656C219.462 155.624 219.372 154.542 219.479 153.473C219.525 152.879 219.599 152.289 219.701 151.704L211.047 144.75C212.182 149.347 213.567 157.761 210.769 161.083Z" fill="#E4897B"/>
<path d="M218.737 127.652C218.737 127.652 222.5 125.944 225.12 128.61C227.327 130.866 225.891 134.335 227.227 137.217C228.562 140.099 223.742 141.984 223.742 141.984C223.742 141.984 222.464 144.951 220.251 144.766C220.251 144.766 218.444 147.138 218.737 149.579C219.03 152.021 215.774 153.968 211.347 153.906C206.92 153.844 208.691 150.815 208.691 150.815C207.409 149.214 206.373 147.401 205.621 145.445C204.725 143.066 204.297 140.511 204.364 137.943C204.323 136.61 204.528 135.28 204.967 134.034C205.406 132.787 206.07 131.647 206.92 130.681C209.912 127.088 216.916 125.311 218.737 127.652Z" fill="#263238"/>
<path d="M219.144 142.594C219.256 143.184 219.487 143.74 219.821 144.222C220.154 144.704 220.581 145.101 221.072 145.384C222.257 145.925 223.036 144.124 222.864 142.239C222.7 140.562 221.9 138.214 220.637 138.523C219.373 138.832 218.73 140.91 219.144 142.594Z" fill="#E4897B"/>
<path d="M226.113 128.502C227.855 130.819 222.478 146.998 214.432 148.528C206.385 150.058 203.722 150.668 204.914 144.093C204.914 144.093 202.451 138.438 204.35 132.504C204.35 132.504 203.422 132.349 203.636 130.364C203.85 128.378 210.633 123.024 215.01 122.568C219.387 122.112 224.192 127.86 224.192 127.86C224.192 127.86 225.085 127.126 226.113 128.502Z" fill="#C4C4C4"/>
<path opacity="0.2" d="M223.613 251.427C222.957 260.374 222.185 269.676 221.471 277.41C220.415 266.246 219.115 258.28 219.115 258.28C219.115 258.28 217.894 257.198 214.553 251.427C211.211 245.655 214.553 234.885 214.553 234.885C214.474 244.89 223.613 251.427 223.613 251.427Z" fill="black"/>
<path d="M241.778 356.018L241.357 358.645H231.196V356.218L241.778 356.018Z" fill="#C4C4C4"/>
<path d="M211.597 357.03L210.626 359.448H202.101L201.544 357.03H211.597Z" fill="#C4C4C4"/>
<path d="M205.493 224.516V229.469L238.101 226.996V222.608L205.493 224.516Z" fill="#C4C4C4"/>
<path opacity="0.2" d="M205.493 224.516V229.469L238.101 226.996V222.608L205.493 224.516Z" fill="#02FF1B"/>
<path d="M239.693 220.429C239.724 220.873 239.672 221.32 239.541 221.742C239.409 222.164 239.201 222.554 238.928 222.887C238.655 223.221 238.323 223.492 237.952 223.684C237.58 223.876 237.177 223.986 236.765 224.006L206.163 225.621C205.93 225.635 205.696 225.597 205.477 225.51C205.257 225.423 205.057 225.289 204.886 225.115C204.716 224.942 204.58 224.733 204.487 224.501C204.393 224.27 204.344 224.02 204.343 223.767C204.15 203.609 197.774 166.947 202.129 163.301C206.635 159.53 228.733 157.552 228.733 157.552C229.77 160.189 230.676 162.884 231.446 165.626C231.539 165.974 231.646 166.322 231.732 166.677C233.003 171.212 234.067 176.111 234.988 181.063C235.052 181.396 235.116 181.736 235.173 182.068C237.348 194.752 238.857 207.56 239.693 220.429Z" fill="#C4C4C4"/>
<path opacity="0.6" d="M239.693 220.429C239.724 220.873 239.672 221.32 239.541 221.742C239.409 222.164 239.201 222.554 238.928 222.887C238.655 223.221 238.323 223.492 237.952 223.684C237.58 223.876 237.177 223.986 236.765 224.006L206.163 225.621C205.93 225.635 205.696 225.597 205.477 225.51C205.257 225.423 205.057 225.289 204.886 225.115C204.716 224.942 204.58 224.733 204.487 224.501C204.393 224.27 204.344 224.02 204.343 223.767C204.15 203.609 197.774 166.947 202.129 163.301C206.635 159.53 228.733 157.552 228.733 157.552C229.633 159.808 230.461 162.265 231.225 164.861C231.296 165.116 231.375 165.371 231.446 165.634C231.518 165.897 231.646 166.329 231.732 166.685C232.917 170.903 233.917 175.439 234.795 180.044L234.988 181.071C235.052 181.403 235.116 181.743 235.173 182.076C237.348 194.757 238.857 207.562 239.693 220.429Z" fill="#02FF1B"/>
<path d="M193.297 177.803C193.297 177.803 190.07 166.306 194.804 160.566C199.538 154.825 216.138 155.845 217.945 156.255C223.507 157.506 225.477 167.365 227.462 177.888C229.447 188.411 231.71 224.424 228.319 226.711C224.927 228.998 201.958 231.733 198.002 229.446C194.047 227.159 193.297 177.803 193.297 177.803Z" fill="#263238"/>
<path d="M190.284 177.44C190.284 177.44 187.064 165.719 191.791 159.801C196.518 153.882 213.132 154.972 214.932 155.389C220.494 156.672 220.908 164.328 222.443 182.678C225.163 215.252 227.591 225.714 224.206 228.047C220.822 230.38 198.945 232.683 194.99 230.319C191.034 227.954 190.284 177.44 190.284 177.44Z" fill="#C4C4C4"/>
<path d="M220.951 161.361C220.951 161.361 222.136 156.332 228.733 157.552C228.733 157.552 224.663 157.498 224.842 172.039C225.02 186.58 229.904 205.896 229.904 205.896C229.904 205.896 235.83 205.602 237.337 196.408L238.051 199.197C238.051 199.197 237.123 212.617 228.219 215.275C228.269 215.252 224.228 168.848 220.951 161.361Z" fill="#263238"/>
<path opacity="0.2" d="M234.795 180.036C227.055 172.642 229.704 164.282 229.704 164.282L231.225 164.862C231.296 165.117 231.375 165.372 231.446 165.634C231.517 165.897 231.646 166.33 231.732 166.685C232.917 170.896 233.916 175.431 234.795 180.036Z" fill="black"/>
<path d="M263.719 146.403C262.226 135.633 240.157 131.978 234.902 131.26C234.026 134.146 233.739 137.204 234.059 140.222C234.059 140.222 250.024 144.982 250.16 146.202C250.295 147.423 231.382 155.528 228.74 157.521C228.74 157.521 227.469 160.566 229.532 166.53C231.253 171.491 233.309 172.858 233.309 172.858C233.309 172.858 265.418 158.611 263.719 146.403Z" fill="#C4C4C4"/>
<path opacity="0.6" d="M263.719 146.403C262.226 135.633 240.157 131.978 234.902 131.26C234.026 134.146 233.739 137.204 234.059 140.222C234.059 140.222 250.024 144.982 250.16 146.202C250.295 147.423 231.382 155.528 228.74 157.521C228.74 157.521 227.469 160.566 229.532 166.53C231.253 171.491 233.309 172.858 233.309 172.858C233.309 172.858 265.418 158.611 263.719 146.403Z" fill="#02FF1B"/>
</svg>
