<svg width="226" height="45" viewBox="0 0 226 45" fill="none" xmlns="http://www.w3.org/2000/svg">
<g clip-path="url(#clip0_914_1676)">
<path fill-rule="evenodd" clip-rule="evenodd" d="M14.079 4.64029C16.0168 4.55107 16.6347 4.53125 21.571 4.53125C26.5073 4.53125 27.1252 4.55273 29.0614 4.64029C30.9976 4.72784 32.3192 5.03678 33.4757 5.48448C34.6866 5.9421 35.7852 6.65743 36.6939 7.58258C37.619 8.48955 38.3327 9.58651 38.7886 10.7991C39.238 11.9555 39.5453 13.2772 39.6345 15.2101C39.7237 17.1512 39.7435 17.7691 39.7435 22.7038C39.7435 27.6401 39.7221 28.2579 39.6345 30.1958C39.5469 32.1287 39.238 33.4503 38.7886 34.6068C38.3327 35.8195 37.6178 36.9183 36.6939 37.8266C35.7852 38.7517 34.6866 39.4654 33.4757 39.9214C32.3192 40.3708 30.9976 40.678 29.0647 40.7672C27.1252 40.8565 26.5073 40.8763 21.571 40.8763C16.6347 40.8763 16.0168 40.8548 14.079 40.7672C12.1461 40.6797 10.8244 40.3708 9.66802 39.9214C8.45528 39.4654 7.35651 38.7505 6.44818 37.8266C5.52366 36.9191 4.80821 35.8208 4.35173 34.6084C3.90402 33.452 3.59674 32.1303 3.50753 30.1974C3.41832 28.2563 3.3985 27.6384 3.3985 22.7038C3.3985 17.7674 3.41998 17.1496 3.50753 15.2134C3.59509 13.2772 3.90402 11.9555 4.35173 10.7991C4.80889 9.58665 5.52488 8.48842 6.44983 7.58093C7.35687 6.65661 8.45454 5.94118 9.66636 5.48448C10.8228 5.03678 12.1444 4.7295 14.0773 4.64029H14.079ZM28.9144 7.91134C26.998 7.82378 26.4231 7.80561 21.571 7.80561C16.719 7.80561 16.144 7.82378 14.2277 7.91134C12.455 7.99229 11.4935 8.288 10.8525 8.53746C10.005 8.86787 9.39873 9.25941 8.7627 9.89545C8.15977 10.482 7.69577 11.1961 7.40471 11.9853C7.15525 12.6263 6.85954 13.5878 6.77859 15.3604C6.69103 17.2768 6.67286 17.8517 6.67286 22.7038C6.67286 27.5558 6.69103 28.1307 6.77859 30.0471C6.85954 31.8198 7.15525 32.7812 7.40471 33.4222C7.69547 34.2103 8.1597 34.9256 8.7627 35.5121C9.34917 36.1151 10.0645 36.5793 10.8525 36.8701C11.4935 37.1195 12.455 37.4152 14.2277 37.4962C16.144 37.5837 16.7173 37.6019 21.571 37.6019C26.4247 37.6019 26.998 37.5837 28.9144 37.4962C30.687 37.4152 31.6485 37.1195 32.2895 36.8701C33.137 36.5397 33.7433 36.1481 34.3793 35.5121C34.9823 34.9256 35.4466 34.2103 35.7373 33.4222C35.9868 32.7812 36.2825 31.8198 36.3634 30.0471C36.451 28.1307 36.4692 27.5558 36.4692 22.7038C36.4692 17.8517 36.451 17.2768 36.3634 15.3604C36.2825 13.5878 35.9868 12.6263 35.7373 11.9853C35.4069 11.1378 35.0154 10.5315 34.3793 9.89545C33.7927 9.29257 33.0787 8.82857 32.2895 8.53746C31.6485 8.288 30.687 7.99229 28.9144 7.91134V7.91134ZM19.2499 28.3059C20.5462 28.8455 21.9896 28.9183 23.3336 28.5119C24.6777 28.1055 25.8389 27.2451 26.619 26.0776C27.3992 24.9102 27.7498 23.5081 27.611 22.1109C27.4722 20.7136 26.8526 19.4079 25.8581 18.4167C25.2241 17.7831 24.4575 17.298 23.6135 16.9962C22.7695 16.6944 21.8691 16.5835 20.9771 16.6715C20.0851 16.7595 19.2237 17.0441 18.4549 17.505C17.6862 17.9658 17.0291 18.5914 16.5311 19.3366C16.0331 20.0819 15.7066 20.9283 15.5749 21.8149C15.4433 22.7015 15.5099 23.6063 15.7699 24.464C16.0299 25.3218 16.4769 26.1113 17.0786 26.7756C17.6804 27.4399 18.4219 27.9625 19.2499 28.3059ZM14.9661 16.0989C15.8335 15.2315 16.8632 14.5435 17.9965 14.0741C19.1297 13.6047 20.3444 13.363 21.571 13.363C22.7977 13.363 24.0123 13.6047 25.1456 14.0741C26.2788 14.5435 27.3085 15.2315 28.1759 16.0989C29.0433 16.9662 29.7313 17.996 30.2007 19.1292C30.6701 20.2625 30.9117 21.4771 30.9117 22.7038C30.9117 23.9304 30.6701 25.145 30.2007 26.2783C29.7313 27.4116 29.0433 28.4413 28.1759 29.3086C26.4242 31.0604 24.0483 32.0445 21.571 32.0445C19.0937 32.0445 16.7179 31.0604 14.9661 29.3086C13.2144 27.5569 12.2303 25.1811 12.2303 22.7038C12.2303 20.2265 13.2144 17.8506 14.9661 16.0989V16.0989ZM32.9834 14.7541C33.1983 14.5514 33.3704 14.3075 33.4894 14.0371C33.6084 13.7666 33.6719 13.475 33.6763 13.1796C33.6806 12.8841 33.6255 12.5908 33.5145 12.317C33.4034 12.0432 33.2385 11.7945 33.0295 11.5856C32.8206 11.3766 32.5719 11.2117 32.2981 11.1006C32.0243 10.9896 31.731 10.9345 31.4355 10.9389C31.1401 10.9432 30.8485 11.0067 30.578 11.1257C30.3076 11.2447 30.0637 11.4168 29.861 11.6317C29.4667 12.0498 29.2508 12.605 29.2591 13.1796C29.2675 13.7542 29.4995 14.3029 29.9058 14.7093C30.3122 15.1156 30.8609 15.3476 31.4355 15.356C32.0101 15.3643 32.5653 15.1484 32.9834 14.7541V14.7541Z" fill="#F8F8F8"/>
</g>
<g clip-path="url(#clip1_914_1676)">
<path d="M69.4913 4.53125C65.8246 4.53125 62.8722 7.48368 62.8722 11.1504V34.1628C62.8722 37.8295 65.8246 40.7819 69.4913 40.7819H81.9638V26.6102H78.2164V21.5079H81.9638V17.1488C81.9638 13.724 84.178 10.5794 89.2785 10.5794C91.3436 10.5794 92.8707 10.7777 92.8707 10.7777L92.7506 15.5424C92.7506 15.5424 91.1932 15.5277 89.4937 15.5277C87.6544 15.5277 87.3595 16.3752 87.3595 17.782V21.5079H92.8968L92.6555 26.6102H87.3595V40.7819H92.5037C96.1704 40.7819 99.1228 37.8295 99.1228 34.1628V11.1504C99.1228 7.48372 96.1704 4.53129 92.5037 4.53129H69.4913L69.4913 4.53125Z" fill="#F8F8F8"/>
</g>
<g clip-path="url(#clip2_914_1676)">
<path d="M137.225 18.0207L144.808 22.3898L137.225 26.7588V18.0207ZM158.03 8.1601V36.5871C158.03 38.7272 156.318 40.4635 154.207 40.4635H126.169C124.058 40.4635 122.346 38.7272 122.346 36.5871V8.1601C122.346 6.02 124.058 4.28369 126.169 4.28369H154.207C156.318 4.28369 158.03 6.02 158.03 8.1601ZM154.685 22.3978C154.685 22.3978 154.685 17.5846 154.079 15.2749C153.745 13.9989 152.765 12.9975 151.515 12.6584C149.26 12.0365 140.188 12.0365 140.188 12.0365C140.188 12.0365 131.116 12.0365 128.861 12.6584C127.611 12.9975 126.631 13.9989 126.297 15.2749C125.691 17.5765 125.691 22.3978 125.691 22.3978C125.691 22.3978 125.691 27.211 126.297 29.5207C126.631 30.7967 127.611 31.7577 128.861 32.0969C131.116 32.7107 140.188 32.7107 140.188 32.7107C140.188 32.7107 149.26 32.7107 151.515 32.0889C152.765 31.7497 153.745 30.7886 154.079 29.5127C154.685 27.211 154.685 22.3978 154.685 22.3978V22.3978Z" fill="#F8F8F8"/>
</g>
<path d="M219.707 4.89404H187.546C186.772 4.89404 186.147 5.51893 186.147 6.29238V38.4542C186.147 39.2277 186.772 39.8525 187.546 39.8525H219.707C220.481 39.8525 221.106 39.2277 221.106 38.4542V6.29238C221.106 5.51893 220.481 4.89404 219.707 4.89404ZM213.035 17.5534C213.048 17.7588 213.048 17.9729 213.048 18.1826C213.048 24.5975 208.162 31.9869 199.235 31.9869C196.482 31.9869 193.93 31.1872 191.78 29.8107C192.173 29.8544 192.549 29.8719 192.951 29.8719C195.223 29.8719 197.312 29.1028 198.977 27.8006C196.845 27.7569 195.053 26.3586 194.441 24.4358C195.188 24.5451 195.861 24.5451 196.63 24.3484C195.532 24.1254 194.546 23.529 193.837 22.6607C193.129 21.7925 192.743 20.7058 192.746 19.5854V19.5242C193.388 19.8869 194.144 20.1097 194.935 20.1403C194.27 19.6972 193.725 19.0969 193.348 18.3925C192.97 17.6882 192.772 16.9016 192.772 16.1026C192.772 15.1981 193.008 14.3722 193.432 13.6555C194.651 15.1558 196.171 16.3829 197.895 17.257C199.619 18.131 201.508 18.6325 203.439 18.7289C202.753 15.4297 205.217 12.7597 208.18 12.7597C209.578 12.7597 210.837 13.3453 211.724 14.2891C212.821 14.0838 213.869 13.673 214.805 13.1224C214.442 14.2454 213.681 15.1937 212.672 15.7924C213.651 15.6875 214.595 15.4165 215.469 15.0364C214.809 16.0065 213.983 16.8673 213.035 17.5534V17.5534Z" fill="#F8F8F8"/>
<defs>
<clipPath id="clip0_914_1676">
<rect width="39.6491" height="39.6491" fill="white" transform="translate(0 2.83203)"/>
</clipPath>
<clipPath id="clip1_914_1676">
<rect width="36.2506" height="36.2506" fill="white" transform="translate(62.8722 4.53125)"/>
</clipPath>
<clipPath id="clip2_914_1676">
<rect width="35.6842" height="41.3484" fill="white" transform="translate(122.346 1.69922)"/>
</clipPath>
</defs>
</svg>
