<svg width="221" height="221" viewBox="0 0 221 221" fill="none" xmlns="http://www.w3.org/2000/svg">
<path d="M221 110.5C221 171.527 171.527 221 110.5 221C49.4725 221 0 171.527 0 110.5C0 49.4725 49.4725 0 110.5 0C171.527 0 221 49.4725 221 110.5Z" fill="#E9E9E9"/>
<path d="M53 132.027C68.8636 132.027 80.7597 113.719 80.7597 113.719C80.7597 113.719 92.6558 132.027 108.519 132.027C124.377 132.027 140.24 113.719 140.24 113.719C140.24 113.719 156.104 132.027 168 132.027M53 89.3081C68.8636 89.3081 80.7597 71 80.7597 71C80.7597 71 92.6558 89.3081 108.519 89.3081C124.377 89.3081 140.24 71 140.24 71C140.24 71 156.104 89.3081 168 89.3081H53Z" stroke="#1C658C" stroke-width="1.5" stroke-linecap="round" stroke-linejoin="round"/>
</svg>
