<svg width="221" height="221" viewBox="0 0 221 221" fill="none" xmlns="http://www.w3.org/2000/svg">
<circle cx="110.5" cy="110.5" r="110.5" fill="#C4C4C4"/>
<circle cx="110.5" cy="110.5" r="110.5" fill="#E9E9E9"/>
<path d="M144.075 94.3336H148.5C150.71 94.3336 152.83 95.2115 154.393 96.7743C155.956 98.3372 156.834 100.457 156.834 102.667V119.334C156.834 121.544 155.956 123.663 154.393 125.226C152.83 126.789 150.71 127.667 148.5 127.667H144.075C143.06 135.722 139.139 143.13 133.049 148.5C126.96 153.87 119.12 156.833 111 156.834V148.5C117.631 148.5 123.99 145.866 128.678 141.178C133.366 136.49 136 130.131 136 123.5V98.5002C136 91.8698 133.366 85.511 128.678 80.8226C123.99 76.1342 117.631 73.5002 111 73.5002C104.37 73.5002 98.0111 76.1342 93.3227 80.8226C88.6342 85.511 86.0003 91.8698 86.0003 98.5002V127.667H73.5003C71.2902 127.667 69.1706 126.789 67.6078 125.226C66.045 123.663 65.167 121.544 65.167 119.334V102.667C65.167 100.457 66.045 98.3372 67.6078 96.7743C69.1706 95.2115 71.2902 94.3336 73.5003 94.3336H77.9253C78.9421 86.279 82.8632 78.8722 88.9527 73.5031C95.0423 68.1339 102.882 65.1714 111 65.1714C119.119 65.1714 126.958 68.1339 133.048 73.5031C139.137 78.8722 143.059 86.279 144.075 94.3336ZM73.5003 102.667V119.334H77.667V102.667H73.5003ZM144.334 102.667V119.334H148.5V102.667H144.334ZM93.3337 126.771L97.7503 119.704C101.721 122.192 106.314 123.508 111 123.5C115.686 123.508 120.279 122.192 124.25 119.704L128.667 126.771C123.372 130.088 117.248 131.843 111 131.834C104.752 131.843 98.6284 130.088 93.3337 126.771Z" fill="#93369A"/>
</svg>
