<svg width="221" height="221" viewBox="0 0 221 221" fill="none" xmlns="http://www.w3.org/2000/svg">
<circle cx="110.5" cy="110.5" r="110.5" fill="#C4C4C4"/>
<circle cx="110.5" cy="110.5" r="110.5" fill="#E9E9E9"/>
<path d="M62.682 150.401H165.095C166.315 150.401 167.034 149.143 166.341 148.222L115.134 72.47C114.532 71.6702 113.245 71.6702 112.643 72.47L61.4364 148.222C60.7437 149.143 61.4621 150.401 62.682 150.401Z" fill="#BFBCAF"/>
<path d="M73.6109 129.669L75.0627 129.679H155.223L152.156 125.159H76.5643L73.6109 129.669ZM70.276 134.662L67.25 139.182H161.542L158.516 134.662H70.276Z" fill="#42FF3E"/>
<path d="M113.889 82.1533L87.5273 150.401H113.889V82.1533Z" fill="#2B3B47"/>
<path d="M56.4589 150.4C56.2471 150.4 56.0376 150.361 55.8439 150.286C55.6502 150.211 55.4767 150.101 55.3346 149.963L49.3925 144.209C49.1225 143.948 48.982 143.603 49.0018 143.251C49.0217 142.899 49.2003 142.568 49.4983 142.331C49.7964 142.094 50.1895 141.971 50.5911 141.988C50.9928 142.006 51.3701 142.162 51.6401 142.424L57.5822 148.177C57.7792 148.368 57.9088 148.605 57.9554 148.859C58.0019 149.113 57.9634 149.374 57.8445 149.609C57.7256 149.844 57.5313 150.044 57.2854 150.185C57.0395 150.325 56.7523 150.4 56.4589 150.4ZM161.291 149.963L167.233 144.209C167.503 143.948 167.644 143.603 167.624 143.251C167.604 142.898 167.426 142.567 167.128 142.331C166.83 142.094 166.437 141.971 166.035 141.988C165.633 142.005 165.256 142.162 164.986 142.423L159.044 148.177C158.774 148.439 158.633 148.783 158.653 149.136C158.673 149.488 158.852 149.819 159.15 150.056C159.448 150.292 159.841 150.416 160.242 150.398C160.644 150.381 161.021 150.224 161.291 149.963ZM138.076 149.963L144.018 144.209C144.288 143.948 144.428 143.603 144.409 143.251C144.389 142.898 144.21 142.567 143.912 142.331C143.614 142.094 143.221 141.971 142.819 141.988C142.418 142.005 142.04 142.162 141.77 142.423L135.828 148.177C135.558 148.439 135.418 148.783 135.438 149.136C135.457 149.488 135.636 149.819 135.934 150.056C136.232 150.292 136.625 150.416 137.027 150.398C137.429 150.381 137.806 150.224 138.076 149.963Z" fill="#8E6049"/>
<path d="M172.096 145.726H168.79C168.635 145.721 168.487 145.66 168.379 145.556C168.271 145.451 168.21 145.312 168.21 145.167C168.21 145.022 168.271 144.882 168.379 144.778C168.487 144.673 168.635 144.612 168.79 144.608H170.931L114.904 71.5059L58.8767 144.608H61.3706C61.5296 144.608 61.6822 144.667 61.7946 144.772C61.9071 144.877 61.9703 145.019 61.9703 145.167C61.9703 145.315 61.9071 145.457 61.7946 145.562C61.6822 145.667 61.5296 145.726 61.3706 145.726H57.7113C57.6011 145.726 57.4929 145.698 57.3988 145.645C57.3046 145.591 57.2281 145.514 57.1777 145.423C57.1273 145.332 57.1049 145.229 57.1129 145.127C57.121 145.024 57.1593 144.926 57.2235 144.842L114.416 70.2202C114.641 69.9266 115.166 69.9266 115.391 70.2202L172.584 144.842C172.648 144.926 172.686 145.024 172.694 145.127C172.702 145.229 172.68 145.331 172.629 145.423C172.579 145.514 172.502 145.591 172.408 145.644C172.314 145.697 172.206 145.726 172.096 145.726Z" fill="#BFBCAF"/>
<path d="M87.711 150.4L109.945 94.1995C109.945 94.1995 91.4545 129.102 75.3613 139.94C75.361 139.94 79.9574 150.4 87.711 150.4ZM149.777 145.116H145.47C145.312 145.112 145.161 145.051 145.05 144.948C144.94 144.844 144.878 144.706 144.878 144.562C144.878 144.418 144.94 144.28 145.05 144.176C145.161 144.073 145.312 144.012 145.47 144.007H148.849L114.15 70.7727C114.118 70.7058 114.102 70.6339 114.101 70.5611C114.1 70.4884 114.114 70.4161 114.144 70.3485C114.174 70.2809 114.218 70.2193 114.275 70.1672C114.331 70.1151 114.398 70.0736 114.471 70.0449C114.545 70.0162 114.625 70.001 114.705 70C114.785 69.9991 114.865 70.0126 114.94 70.0396C115.015 70.0666 115.083 70.1066 115.14 70.1575C115.198 70.2083 115.244 70.2689 115.275 70.3358L150.34 144.344C150.38 144.428 150.396 144.52 150.387 144.611C150.378 144.703 150.344 144.791 150.289 144.867C150.233 144.944 150.157 145.007 150.068 145.05C149.978 145.094 149.879 145.116 149.777 145.116Z" fill="#E5E4DF"/>
</svg>
