<svg width="221" height="221" viewBox="0 0 221 221" fill="none" xmlns="http://www.w3.org/2000/svg">
<path d="M221 110.5C221 171.527 171.527 221 110.5 221C49.4725 221 0 171.527 0 110.5C0 49.4725 49.4725 0 110.5 0C171.527 0 221 49.4725 221 110.5Z" fill="#E9E9E9"/>
<path d="M130 110.434L95 62L60 110.434H69.3L50 139.495H85V158.868H105V139.495H140L120.7 110.434H130Z" fill="#B6480B"/>
<path d="M150.717 110.434H160.017L125.017 62L113.067 78.516L139.617 115.277H129.867L145.967 139.495H170.017L150.717 110.434ZM115.017 144.338H135.017V158.868H115.017V144.338Z" fill="#B6480B"/>
</svg>
