<svg width="360" height="360" viewBox="0 0 360 360" fill="none" xmlns="http://www.w3.org/2000/svg">
<circle cx="180" cy="180" r="180" fill="#1C658C"/>
<path d="M86 86V138.083H138.083" stroke="white" stroke-width="22.5833" stroke-linecap="round" stroke-linejoin="round"/>
<path d="M86.5208 190.166C88.8282 211.06 98.0906 230.573 112.821 245.569C127.551 260.566 146.893 270.178 167.743 272.86C188.592 275.542 209.737 271.139 227.783 260.359C245.83 249.578 259.729 233.046 267.249 213.416C274.77 193.786 275.475 172.199 269.251 152.12C263.028 132.042 250.237 114.637 232.933 102.702C215.629 90.7671 194.815 84.9939 173.836 86.3098C152.856 87.6257 132.927 95.9543 117.25 109.958L86 138.083" stroke="white" stroke-width="22.5833" stroke-linecap="round" stroke-linejoin="round"/>
<path d="M179.75 127.667V179.75L221.417 200.583" stroke="white" stroke-width="22.5833" stroke-linecap="round" stroke-linejoin="round"/>
</svg>
