<svg width="360" height="360" viewBox="0 0 360 360" fill="none" xmlns="http://www.w3.org/2000/svg">
<circle cx="180" cy="180" r="180" fill="#1C658C"/>
<path d="M164.375 212.656L136.328 184.609L125.312 195.625L164.375 234.688L234.688 164.375L223.672 153.281L164.375 212.656Z" fill="white"/>
<path d="M250.312 94.0625H226.875V86.25C226.875 82.106 225.229 78.1317 222.299 75.2015C219.368 72.2712 215.394 70.625 211.25 70.625H148.75C144.606 70.625 140.632 72.2712 137.701 75.2015C134.771 78.1317 133.125 82.106 133.125 86.25V94.0625H109.688C105.543 94.0625 101.569 95.7087 98.639 98.639C95.7087 101.569 94.0625 105.543 94.0625 109.688V273.75C94.0625 277.894 95.7087 281.868 98.639 284.799C101.569 287.729 105.543 289.375 109.688 289.375H250.312C254.457 289.375 258.431 287.729 261.361 284.799C264.291 281.868 265.938 277.894 265.938 273.75V109.688C265.938 105.543 264.291 101.569 261.361 98.639C258.431 95.7087 254.457 94.0625 250.312 94.0625ZM148.75 86.25H211.25V117.5H148.75V86.25ZM250.312 273.75H109.688V109.688H133.125V133.125H226.875V109.688H250.312V273.75Z" fill="white"/>
</svg>
