<svg width="360" height="360" viewBox="0 0 360 360" fill="none" xmlns="http://www.w3.org/2000/svg">
<circle cx="180" cy="180" r="180" fill="#1C658C"/>
<path d="M262.687 190.417C260.369 208.775 252.009 225.84 238.924 238.925C225.84 252.009 208.775 260.369 190.416 262.688V284.167H169.583V262.688C151.225 260.369 134.159 252.009 121.075 238.925C107.991 225.84 99.6308 208.775 97.3122 190.417H75.833V169.583H97.3122C99.6308 151.225 107.991 134.16 121.075 121.075C134.159 107.991 151.225 99.6311 169.583 97.3125V75.8334H190.416V97.3125C208.775 99.6311 225.84 107.991 238.924 121.075C252.009 134.16 260.369 151.225 262.687 169.583H284.166V190.417H262.687ZM180 242.5C196.576 242.5 212.473 235.915 224.194 224.194C235.915 212.473 242.5 196.576 242.5 180C242.5 163.424 235.915 147.527 224.194 135.806C212.473 124.085 196.576 117.5 180 117.5C163.424 117.5 147.527 124.085 135.806 135.806C124.084 147.527 117.5 163.424 117.5 180C117.5 196.576 124.084 212.473 135.806 224.194C147.527 235.915 163.424 242.5 180 242.5ZM180 211.25C188.288 211.25 196.236 207.958 202.097 202.097C207.957 196.237 211.25 188.288 211.25 180C211.25 171.712 207.957 163.763 202.097 157.903C196.236 152.042 188.288 148.75 180 148.75C171.712 148.75 163.763 152.042 157.903 157.903C152.042 163.763 148.75 171.712 148.75 180C148.75 188.288 152.042 196.237 157.903 202.097C163.763 207.958 171.712 211.25 180 211.25Z" fill="white"/>
</svg>
