<svg width="221" height="224" viewBox="0 0 221 224" fill="none" xmlns="http://www.w3.org/2000/svg">
<circle cx="110.5" cy="113.5" r="110.5" fill="#C4C4C4"/>
<circle cx="110.5" cy="110.5" r="110.5" fill="#E9E9E9"/>
<path d="M144.075 97.3336H148.5C150.71 97.3336 152.83 98.2115 154.393 99.7743C155.956 101.337 156.834 103.457 156.834 105.667V122.334C156.834 124.544 155.956 126.663 154.393 128.226C152.83 129.789 150.71 130.667 148.5 130.667H144.075C143.06 138.722 139.139 146.13 133.049 151.5C126.96 156.87 119.12 159.833 111 159.834V151.5C117.631 151.5 123.99 148.866 128.678 144.178C133.366 139.489 136 133.131 136 126.5V101.5C136 94.8698 133.366 88.511 128.678 83.8226C123.99 79.1342 117.631 76.5002 111 76.5002C104.37 76.5002 98.0111 79.1342 93.3227 83.8226C88.6342 88.511 86.0003 94.8698 86.0003 101.5V130.667H73.5003C71.2902 130.667 69.1706 129.789 67.6078 128.226C66.045 126.663 65.167 124.544 65.167 122.334V105.667C65.167 103.457 66.045 101.337 67.6078 99.7743C69.1706 98.2115 71.2902 97.3336 73.5003 97.3336H77.9253C78.9421 89.279 82.8632 81.8722 88.9527 76.5031C95.0423 71.1339 102.882 68.1714 111 68.1714C119.119 68.1714 126.958 71.1339 133.048 76.5031C139.137 81.8722 143.059 89.279 144.075 97.3336V97.3336ZM73.5003 105.667V122.334H77.667V105.667H73.5003ZM144.334 105.667V122.334H148.5V105.667H144.334ZM93.3337 129.771L97.7503 122.704C101.721 125.192 106.314 126.508 111 126.5C115.686 126.508 120.279 125.192 124.25 122.704L128.667 129.771C123.372 133.088 117.248 134.843 111 134.834C104.752 134.843 98.6284 133.088 93.3337 129.771Z" fill="#93369A"/>
</svg>
