<svg width="221" height="221" viewBox="0 0 221 221" fill="none" xmlns="http://www.w3.org/2000/svg">
<circle cx="110.5" cy="110.5" r="110.5" fill="#E9E9E9"/>
<path d="M165.974 147.381C161.222 147.389 147.971 147.448 135.163 147.448H135.085L62.1977 146.541C61.0818 146.528 59.9882 146.236 59.0237 145.692H58.833L58.7983 145.566C57.7732 144.938 56.9501 144.045 56.4222 142.987C55.8672 141.912 55 139.913 55 139.913V132.756C55 132.756 69.6121 103.808 73.8527 94.2566C77.3127 86.4442 79.5934 81.2947 81.4492 77.8842C83.2096 74.65 84.892 72.3399 87.3895 71.567C89.8523 70.8194 91.5606 71.6426 92.6966 72.1803C93.5205 72.5751 93.8327 72.7179 94.5784 72.5667C94.96 72.4911 95.0727 72.4155 95.6538 71.9199L95.7752 71.8274C96.1307 71.5334 96.5036 70.9118 96.8765 70.3154C97.709 68.9629 98.8537 67.1148 101.204 66.5184C106.684 65.1239 110.595 66.5352 113.18 70.8446C113.683 71.6846 115.452 75.07 118.799 81.4627C119.631 83.0672 120.551 84.8061 121.513 86.6542C124.809 81.9247 127.263 78.4134 127.601 77.9262C128.65 76.4477 130.662 75.4816 132.414 75.3892C134.166 75.2968 136.429 76.7081 137.496 78.4302C138.354 79.8078 156.574 114.695 166.009 131.773L165.974 147.381Z" fill="#196CA2"/>
<path d="M158.247 145.417C157.822 145.955 157.51 146.543 156.816 146.652C155.394 146.879 154.102 147.492 153.07 148.374C152.385 148.962 151.379 149.046 150.607 148.559L150.59 148.542C148.934 145.51 145.795 144.124 142.005 144.124C138.441 144.124 135.171 145.266 133.437 148.013C132.951 148.769 131.98 149.021 131.148 148.635C130.111 148.153 128.967 147.928 127.818 147.98C126.985 148.013 126.248 147.517 125.936 146.77C124.15 142.402 119.909 140.554 114.758 140.554C109.459 140.554 104.811 142.561 103.12 147.131C102.964 147.551 102.687 147.921 102.279 148.148C102.088 148.257 101.897 148.374 101.724 148.509C101.195 148.92 100.475 148.946 99.8596 148.668C98.87 148.226 97.793 147.997 96.703 147.996C95.541 147.996 94.4397 148.257 93.4511 148.719C92.7053 149.063 91.8208 148.92 91.2484 148.341C90.5486 147.625 89.7054 147.056 88.7705 146.667C87.8355 146.279 86.8285 146.079 85.8112 146.081C83.6259 146.081 81.666 146.988 80.2872 148.425C79.6281 149.122 78.5528 149.156 77.7984 148.551C77.0154 147.924 76.0306 147.582 75.0147 147.585C74.1041 147.585 73.263 147.862 72.5692 148.324C72.231 148.551 71.3031 148.668 70.4273 148.374C69.7075 148.139 69.0484 147.576 68.6062 146.98C65.5103 142.738 61.66 141.133 60.5413 140.629C58.4601 139.68 55 139.949 55 139.949V155.75C55 155.935 166 155.75 166 155.75V140.713C166 139.268 160.094 143.074 158.247 145.417Z" fill="#BDCF46"/>
<path d="M82.7835 115C84.5006 112.975 85.307 111.698 90.7356 102.542C100.838 85.4806 98.9219 88.3872 99.5549 87.4211C99.5549 87.4211 102.018 83.6578 105.625 75.9378C106.831 73.3505 107.785 71.0908 106.727 69.7804C105.851 68.6967 103.9 68.6211 102.659 68.9487C101.003 69.3855 99.6937 70.5784 98.3322 72.7457C97.9593 73.3421 97.5864 73.9637 97.2309 74.2578L97.1095 74.3502C96.5198 74.8458 96.4157 74.9298 96.0342 74.997C95.2884 75.1482 94.9849 75.0054 94.1524 74.6106C93.0163 74.073 91.308 73.2497 88.8452 73.9973C86.3477 74.7618 84.6653 77.0803 82.9049 80.3144C81.0492 83.725 64.0263 120.225 64.0263 120.225C63.8788 120.594 64.165 123.072 69.9231 123.686C74.9702 124.215 79.2107 119.233 82.7835 115ZM138.821 80.726C137.755 79.004 135.535 77.7607 133.783 77.8531C132.022 77.9539 130.019 78.92 128.97 80.39C128.623 80.8772 126.169 84.3886 122.882 89.118L128.25 96.5859C128.25 96.5859 135.777 88.3536 138.587 84.1282C139.359 82.9521 138.839 80.768 138.821 80.726Z" fill="#78A3AD"/>
</svg>
