<svg width="226" height="45" viewBox="0 0 226 45" fill="none" xmlns="http://www.w3.org/2000/svg">
<g clip-path="url(#clip0_914_554)">
<path fill-rule="evenodd" clip-rule="evenodd" d="M14.0789 4.64029C16.0168 4.55107 16.6346 4.53125 21.571 4.53125C26.5073 4.53125 27.1251 4.55273 29.0613 4.64029C30.9975 4.72784 32.3192 5.03678 33.4756 5.48448C34.6866 5.9421 35.7852 6.65743 36.6938 7.58258C37.6189 8.48955 38.3326 9.58651 38.7886 10.7991C39.2379 11.9555 39.5452 13.2772 39.6344 15.2101C39.7236 17.1512 39.7435 17.7691 39.7435 22.7038C39.7435 27.6401 39.722 28.2579 39.6344 30.1958C39.5469 32.1287 39.2379 33.4503 38.7886 34.6068C38.3326 35.8195 37.6177 36.9183 36.6938 37.8266C35.7852 38.7517 34.6866 39.4654 33.4756 39.9214C32.3192 40.3708 30.9975 40.678 29.0646 40.7672C27.1251 40.8565 26.5073 40.8763 21.571 40.8763C16.6346 40.8763 16.0168 40.8548 14.0789 40.7672C12.146 40.6797 10.8244 40.3708 9.66796 39.9214C8.45522 39.4654 7.35645 38.7505 6.44812 37.8266C5.5236 36.9191 4.80815 35.8208 4.35167 34.6084C3.90396 33.452 3.59668 32.1303 3.50747 30.1974C3.41826 28.2563 3.39844 27.6384 3.39844 22.7038C3.39844 17.7674 3.41991 17.1496 3.50747 15.2134C3.59503 13.2772 3.90396 11.9555 4.35167 10.7991C4.80883 9.58665 5.52482 8.48842 6.44977 7.58093C7.35681 6.65661 8.45448 5.94118 9.6663 5.48448C10.8227 5.03678 12.1444 4.7295 14.0773 4.64029H14.0789ZM28.9143 7.91134C26.9979 7.82378 26.423 7.80561 21.571 7.80561C16.7189 7.80561 16.144 7.82378 14.2276 7.91134C12.455 7.99229 11.4935 8.288 10.8525 8.53746C10.005 8.86787 9.39867 9.25941 8.76263 9.89545C8.15971 10.482 7.69571 11.1961 7.40465 11.9853C7.15519 12.6263 6.85948 13.5878 6.77853 15.3604C6.69097 17.2768 6.67279 17.8517 6.67279 22.7038C6.67279 27.5558 6.69097 28.1307 6.77853 30.0471C6.85948 31.8198 7.15519 32.7812 7.40465 33.4222C7.69541 34.2103 8.15964 34.9256 8.76263 35.5121C9.34911 36.1151 10.0644 36.5793 10.8525 36.8701C11.4935 37.1195 12.455 37.4152 14.2276 37.4962C16.144 37.5837 16.7172 37.6019 21.571 37.6019C26.4247 37.6019 26.9979 37.5837 28.9143 37.4962C30.6869 37.4152 31.6484 37.1195 32.2894 36.8701C33.1369 36.5397 33.7432 36.1481 34.3793 35.5121C34.9823 34.9256 35.4465 34.2103 35.7373 33.4222C35.9867 32.7812 36.2824 31.8198 36.3634 30.0471C36.4509 28.1307 36.4691 27.5558 36.4691 22.7038C36.4691 17.8517 36.4509 17.2768 36.3634 15.3604C36.2824 13.5878 35.9867 12.6263 35.7373 11.9853C35.4068 11.1378 35.0153 10.5315 34.3793 9.89545C33.7927 9.29257 33.0786 8.82857 32.2894 8.53746C31.6484 8.288 30.6869 7.99229 28.9143 7.91134ZM19.2498 28.3059C20.5461 28.8455 21.9895 28.9183 23.3336 28.5119C24.6776 28.1055 25.8388 27.2451 26.619 26.0776C27.3991 24.9102 27.7497 23.5081 27.6109 22.1109C27.4721 20.7136 26.8526 19.4079 25.858 18.4167C25.224 17.7831 24.4574 17.298 23.6134 16.9962C22.7694 16.6944 21.869 16.5835 20.977 16.6715C20.085 16.7595 19.2236 17.0441 18.4549 17.505C17.6861 17.9658 17.0291 18.5914 16.5311 19.3366C16.0331 20.0819 15.7065 20.9283 15.5749 21.8149C15.4433 22.7015 15.5098 23.6063 15.7699 24.464C16.0299 25.3218 16.4768 26.1113 17.0786 26.7756C17.6803 27.4399 18.4219 27.9625 19.2498 28.3059ZM14.9661 16.0989C15.8334 15.2315 16.8631 14.5435 17.9964 14.0741C19.1297 13.6047 20.3443 13.363 21.571 13.363C22.7976 13.363 24.0122 13.6047 25.1455 14.0741C26.2788 14.5435 27.3085 15.2315 28.1758 16.0989C29.0432 16.9662 29.7312 17.996 30.2006 19.1292C30.6701 20.2625 30.9117 21.4771 30.9117 22.7038C30.9117 23.9304 30.6701 25.145 30.2006 26.2783C29.7312 27.4116 29.0432 28.4413 28.1758 29.3086C26.4241 31.0604 24.0483 32.0445 21.571 32.0445C19.0936 32.0445 16.7178 31.0604 14.9661 29.3086C13.2143 27.5569 12.2302 25.1811 12.2302 22.7038C12.2302 20.2265 13.2143 17.8506 14.9661 16.0989ZM32.9833 14.7541C33.1982 14.5514 33.3703 14.3075 33.4893 14.0371C33.6083 13.7666 33.6719 13.475 33.6762 13.1796C33.6805 12.8841 33.6255 12.5908 33.5144 12.317C33.4033 12.0432 33.2384 11.7945 33.0295 11.5856C32.8205 11.3766 32.5718 11.2117 32.298 11.1006C32.0242 10.9896 31.7309 10.9345 31.4354 10.9388C31.14 10.9432 30.8484 11.0067 30.578 11.1257C30.3075 11.2447 30.0637 11.4168 29.8609 11.6317C29.4666 12.0498 29.2507 12.605 29.2591 13.1796C29.2675 13.7542 29.4994 14.3029 29.9058 14.7093C30.3121 15.1156 30.8608 15.3476 31.4354 15.356C32.01 15.3643 32.5653 15.1484 32.9833 14.7541Z" fill="#F8F8F8"/>
</g>
<g clip-path="url(#clip1_914_554)">
<path d="M69.4912 4.53125C65.8245 4.53125 62.8721 7.48368 62.8721 11.1504V34.1628C62.8721 37.8295 65.8245 40.7819 69.4912 40.7819H81.9637V26.6102H78.2163V21.5079H81.9637V17.1488C81.9637 13.724 84.1779 10.5794 89.2784 10.5794C91.3435 10.5794 92.8706 10.7777 92.8706 10.7777L92.7505 15.5424C92.7505 15.5424 91.1931 15.5277 89.4936 15.5277C87.6543 15.5277 87.3594 16.3752 87.3594 17.782V21.5079H92.8967L92.6554 26.6102H87.3594V40.7819H92.5035C96.1703 40.7819 99.1227 37.8295 99.1227 34.1628V11.1504C99.1227 7.48372 96.1703 4.53129 92.5035 4.53129H69.4912L69.4912 4.53125Z" fill="#F8F8F8"/>
</g>
<g clip-path="url(#clip2_914_554)">
<path d="M137.225 18.0207L144.808 22.3898L137.225 26.7588V18.0207ZM158.03 8.1601V36.5871C158.03 38.7272 156.317 40.4635 154.207 40.4635H126.169C124.058 40.4635 122.346 38.7272 122.346 36.5871V8.1601C122.346 6.02 124.058 4.28369 126.169 4.28369H154.207C156.317 4.28369 158.03 6.02 158.03 8.1601ZM154.685 22.3978C154.685 22.3978 154.685 17.5846 154.079 15.2749C153.745 13.9989 152.765 12.9975 151.514 12.6583C149.26 12.0365 140.188 12.0365 140.188 12.0365C140.188 12.0365 131.115 12.0365 128.861 12.6583C127.611 12.9975 126.631 13.9989 126.296 15.2749C125.691 17.5765 125.691 22.3978 125.691 22.3978C125.691 22.3978 125.691 27.211 126.296 29.5207C126.631 30.7967 127.611 31.7577 128.861 32.0969C131.115 32.7107 140.188 32.7107 140.188 32.7107C140.188 32.7107 149.26 32.7107 151.514 32.0889C152.765 31.7497 153.745 30.7886 154.079 29.5127C154.685 27.211 154.685 22.3978 154.685 22.3978Z" fill="#F8F8F8"/>
</g>
<path d="M219.707 4.89404H187.545C186.772 4.89404 186.147 5.51893 186.147 6.29238V38.4542C186.147 39.2277 186.772 39.8525 187.545 39.8525H219.707C220.481 39.8525 221.105 39.2277 221.105 38.4542V6.29238C221.105 5.51893 220.481 4.89404 219.707 4.89404ZM213.034 17.5534C213.048 17.7588 213.048 17.9729 213.048 18.1826C213.048 24.5975 208.162 31.9869 199.235 31.9869C196.482 31.9869 193.93 31.1872 191.78 29.8107C192.173 29.8544 192.549 29.8719 192.951 29.8719C195.223 29.8719 197.312 29.1028 198.977 27.8006C196.844 27.7569 195.053 26.3586 194.441 24.4358C195.188 24.5451 195.861 24.5451 196.63 24.3484C195.532 24.1254 194.545 23.529 193.837 22.6607C193.129 21.7925 192.743 20.7058 192.745 19.5854V19.5242C193.388 19.8869 194.144 20.1097 194.935 20.1403C194.27 19.6972 193.724 19.0969 193.347 18.3925C192.97 17.6882 192.772 16.9016 192.772 16.1026C192.772 15.1981 193.008 14.3722 193.431 13.6555C194.65 15.1558 196.171 16.3829 197.895 17.257C199.619 18.131 201.508 18.6325 203.438 18.7289C202.752 15.4297 205.217 12.7597 208.18 12.7597C209.578 12.7597 210.836 13.3453 211.723 14.2891C212.82 14.0838 213.869 13.673 214.804 13.1224C214.442 14.2454 213.681 15.1937 212.672 15.7924C213.651 15.6875 214.594 15.4165 215.468 15.0364C214.809 16.0065 213.983 16.8673 213.034 17.5534Z" fill="#F8F8F8"/>
<defs>
<clipPath id="clip0_914_554">
<rect width="39.6491" height="39.6491" fill="white" transform="translate(0 2.83203)"/>
</clipPath>
<clipPath id="clip1_914_554">
<rect width="36.2506" height="36.2506" fill="white" transform="translate(62.8721 4.53125)"/>
</clipPath>
<clipPath id="clip2_914_554">
<rect width="35.6842" height="41.3484" fill="white" transform="translate(122.346 1.69922)"/>
</clipPath>
</defs>
</svg>
