<svg width="22" height="21" viewBox="0 0 22 21" fill="none" xmlns="http://www.w3.org/2000/svg">
<path d="M20.6819 7.81964L14.3401 6.89797L11.5052 1.15066C11.4278 0.993305 11.3004 0.86592 11.143 0.788489C10.7484 0.593665 10.2688 0.756019 10.0715 1.15066L7.23655 6.89797L0.894781 7.81964C0.719939 7.84462 0.560083 7.92704 0.437694 8.05193C0.289732 8.20401 0.208198 8.40861 0.211008 8.62077C0.213818 8.83293 0.300742 9.0353 0.45268 9.18341L5.04104 13.6569L3.95702 19.9737C3.93159 20.1206 3.94785 20.2717 4.00395 20.4099C4.06005 20.5481 4.15374 20.6678 4.2744 20.7554C4.39506 20.843 4.53786 20.8951 4.68661 20.9057C4.83535 20.9163 4.9841 20.885 5.11597 20.8154L10.7883 17.8331L16.4607 20.8154C16.6156 20.8978 16.7954 20.9253 16.9678 20.8953C17.4024 20.8204 17.6946 20.4083 17.6197 19.9737L16.5357 13.6569L21.124 9.18341C21.2489 9.06102 21.3313 8.90116 21.3563 8.72632C21.4237 8.28921 21.119 7.88458 20.6819 7.81964Z" fill="#FFD233"/>
</svg>
