<svg width="221" height="221" viewBox="0 0 221 221" fill="none" xmlns="http://www.w3.org/2000/svg">
<circle cx="110.5" cy="110.5" r="110.5" fill="#C4C4C4"/>
<circle cx="110.5" cy="110.5" r="110.5" fill="#E9E9E9"/>
<path d="M102.631 136.137L77.6665 121.197H152.667C157.269 121.197 161 124.811 161 129.27C161 133.728 157.269 137.342 152.667 137.342H107.011C105.464 137.342 103.947 136.925 102.631 136.137Z" stroke="#009020" stroke-width="4" stroke-linecap="round" stroke-linejoin="round"/>
<path d="M127.666 72.7632C130.735 72.7632 133.222 70.3538 133.222 67.3816C133.222 64.4094 130.735 62 127.666 62C124.598 62 122.111 64.4094 122.111 67.3816C122.111 70.3538 124.598 72.7632 127.666 72.7632Z" stroke="#009020" stroke-width="4" stroke-miterlimit="2"/>
<path d="M138.778 129.27C149.889 121.197 145.722 103.528 142.944 98.3254C140.167 93.1225 134.748 86.2168 134.748 86.2168C134.748 86.2168 131.833 86.2168 129.056 88.9076C121.615 96.1152 116.555 105.052 109.611 105.052C102.667 105.052 92.9443 99.6708 92.9443 99.6708" stroke="#009020" stroke-width="4" stroke-miterlimit="2" stroke-linecap="round" stroke-linejoin="round"/>
<path d="M99.8901 83.5265C89.899 71.4289 82.1531 65.8581 66.5567 64.8578C63.4951 64.6614 61 67.1003 61 70.0725V118.507" stroke="#009020" stroke-width="4" stroke-linecap="round" stroke-linejoin="round"/>
<path d="M63.7773 158.868C74.8885 158.868 71.9371 153.487 80.4441 153.487C88.951 153.487 85.9996 158.868 95.7219 158.868C105.444 158.868 102.666 153.487 112.389 153.487C122.111 153.487 120.548 158.868 129.055 158.868C137.562 158.868 133.222 153.487 142.944 153.487C152.666 153.487 150.062 158.868 161 158.868" stroke="#009020" stroke-width="4" stroke-linecap="round" stroke-linejoin="round"/>
<circle cx="110.5" cy="110.5" r="110.5" fill="#C4C4C4"/>
<circle cx="110.5" cy="110.5" r="110.5" fill="#E9E9E9"/>
<path d="M102.631 136.137L77.6665 121.197H152.667C157.269 121.197 161 124.811 161 129.27C161 133.728 157.269 137.342 152.667 137.342H107.011C105.464 137.342 103.947 136.925 102.631 136.137Z" stroke="#009020" stroke-width="4" stroke-linecap="round" stroke-linejoin="round"/>
<path d="M127.666 72.7632C130.735 72.7632 133.222 70.3538 133.222 67.3816C133.222 64.4094 130.735 62 127.666 62C124.598 62 122.111 64.4094 122.111 67.3816C122.111 70.3538 124.598 72.7632 127.666 72.7632Z" stroke="#009020" stroke-width="4" stroke-miterlimit="2"/>
<path d="M138.778 129.27C149.889 121.197 145.722 103.528 142.944 98.3254C140.167 93.1225 134.748 86.2168 134.748 86.2168C134.748 86.2168 131.833 86.2168 129.056 88.9076C121.615 96.1152 116.555 105.052 109.611 105.052C102.667 105.052 92.9443 99.6708 92.9443 99.6708" stroke="#009020" stroke-width="4" stroke-miterlimit="2" stroke-linecap="round" stroke-linejoin="round"/>
<path d="M99.8901 83.5265C89.899 71.4289 82.1531 65.8581 66.5567 64.8578C63.4951 64.6614 61 67.1003 61 70.0725V118.507" stroke="#009020" stroke-width="4" stroke-linecap="round" stroke-linejoin="round"/>
<path d="M63.7773 158.868C74.8885 158.868 71.9371 153.487 80.4441 153.487C88.951 153.487 85.9996 158.868 95.7219 158.868C105.444 158.868 102.666 153.487 112.389 153.487C122.111 153.487 120.548 158.868 129.055 158.868C137.562 158.868 133.222 153.487 142.944 153.487C152.666 153.487 150.062 158.868 161 158.868" stroke="#009020" stroke-width="4" stroke-linecap="round" stroke-linejoin="round"/>
</svg>
