<svg width="221" height="221" viewBox="0 0 221 221" fill="none" xmlns="http://www.w3.org/2000/svg">
<circle cx="110.5" cy="110.5" r="110.5" fill="#C4C4C4"/>
<circle cx="110.5" cy="110.5" r="110.5" fill="#E9E9E9"/>
<path d="M133.792 97.1248H140.167V156.833H133.792V113.5C130.458 112.833 127.333 111.583 124.375 109.792C121.417 108 118.917 105.917 116.792 103.5L114.208 116.292L123.5 125.458V156.833H115.167V131.833L105.833 122.667L98.0416 156.833H89.0416C89.0416 156.833 102.083 91.0832 102.208 90.5415C102.667 88.5415 103.583 86.9998 105.125 85.9998C106.667 84.8748 108.208 84.3332 109.792 84.3332C111.417 84.3332 112.917 84.7082 114.292 85.4582C115.708 86.1665 116.792 87.2082 117.583 88.5415L122 95.3332C123.208 97.5832 124.833 99.5415 126.875 101.125C128.917 102.708 131.25 103.917 133.792 104.75V97.1248ZM96.625 85.5415L91.8333 84.5415C89.4583 83.9165 87.2916 84.4165 85.3333 85.7498C83.4166 87.0832 82.25 88.9165 81.8333 91.3332L78.4583 107.917C78.3333 109.125 78.5833 110.208 79.25 111.208C79.9166 112.208 80.7916 112.75 81.8333 112.917L91.0416 114.708L96.625 85.5415ZM115.167 65.1665C110.583 65.1665 106.833 68.9165 106.833 73.4998C106.833 78.0832 110.583 81.8332 115.167 81.8332C119.75 81.8332 123.5 78.1248 123.5 73.4998C123.5 68.8748 119.792 65.1665 115.167 65.1665Z" fill="#FA6E03"/>
</svg>
